<svg xmlns="http://www.w3.org/2000/svg" viewBox="0 0 1064.97 735.06"><defs><style>.cls-1{fill:#002f38;}.cls-2{fill:#7facb7;}.cls-3{fill:#bedad6;}.cls-4{fill:#80b6ad;}.cls-5{fill:#f29b8c;}.cls-6{fill:#1b6c80;}.cls-7{fill:#002329;}.cls-8{fill:#ed745c;}.cls-9{fill:#80b6ae;}.cls-10{fill:#80acb7;}.cls-11{fill:#fdfdfd;}.cls-12{fill:#1f4045;}.cls-13{fill:#445659;}.cls-14{fill:#015c71;}.cls-15{fill:#1b6c7f;}.cls-16{fill:#fee6a2;}.cls-17{fill:#f19b8d;}.cls-18{fill:#b6564e;}.cls-19{fill:#025c71;}.cls-20{fill:#07292d;}.cls-21{fill:#00252b;}.cls-22{fill:#b2c0c3;}.cls-23{fill:#34464a;}.cls-24{fill:#2e4549;}.cls-25{fill:#fefefe;}.cls-26{fill:#7fb6ad;}.cls-27{fill:#015b70;}.cls-28{fill:#408394;}.cls-29{fill:#00232a;}.cls-30{fill:#025b70;}.cls-31{fill:#408293;}.cls-32{fill:#015b6f;}.cls-33{fill:#025b6f;}.cls-34{fill:#dc897b;}.cls-35{fill:#015a6f;}.cls-36{fill:#3f8293;}.cls-37{fill:#015a6e;}.cls-38{fill:#bfd5db;}.cls-39{fill:#035d72;}.cls-40{fill:#bed5db;}.cls-41{fill:#065f74;}.cls-42{fill:#055e73;}.cls-43{fill:#bdd4da;}.cls-44{fill:#fdfefe;}.cls-45{fill:#0f6377;}.cls-46{fill:#166173;}.cls-47{fill:#155e70;}.cls-48{fill:#155f70;}.cls-49{fill:#155e6f;}.cls-50{fill:#155f71;}.cls-51{fill:#145d6e;}.cls-52{fill:#1a6b7f;}.cls-53{fill:#f8fafa;}.cls-54{fill:#045b6f;}.cls-55{fill:#fcfdfd;}.cls-56{fill:#00242a;}.cls-57{fill:#05292f;}.cls-58{fill:#d38577;}.cls-59{fill:#012f38;}.cls-60{fill:#023039;}.cls-61{fill:#04323a;}.cls-62{fill:#b9574e;}.cls-63{fill:#013039;}.cls-64{fill:#173940;}.cls-65{fill:#0f353d;}.cls-66{fill:#c7887d;}.cls-67{fill:#11363e;}.cls-68{fill:#14383f;}.cls-69{fill:#07323a;}.cls-70{fill:#cf8679;}.cls-71{fill:#3c7b8a;}.cls-72{fill:#003039;}.cls-73{fill:#00303a;}.cls-74{fill:#00313a;}.cls-75{fill:#30798a;}.cls-76{fill:#04333c;}.cls-77{fill:#03323b;}.cls-78{fill:#05343d;}.cls-79{fill:#025a6e;}.cls-80{fill:#075e72;}.cls-81{fill:#0f3d47;}.cls-82{fill:#fee8aa;}.cls-83{fill:#0a363f;}.cls-84{fill:#13373e;}.cls-85{fill:#18373e;}.cls-86{fill:#183a40;}.cls-87{fill:#1b3b41;}.cls-88{fill:#ae5b53;}.cls-89{fill:#274045;}</style></defs><g id="Layer_2" data-name="Layer 2"><g id="Layer_1-2" data-name="Layer 1"><path class="cls-1" d="M466,302.28,463.55,254c-1.18-23.91-2.82-47.81-.68-71.74,1.43-16,7.79-30.05,17.2-42.87,4.91-6.68,10.26-13.07,13.72-20.72a42.43,42.43,0,0,0,3.91-15.37c.2-4.1,1.82-3.8,4.58-2.42,1.77.88,3.66,1.53,5,3,.72,7.35-.4,14.61-1.38,21.83-.95,7-1.2,7-8.59,8.44,4.28,3.74,4.39,4.69-.09,9.05-14,13.59-23,30-28.18,48.64-2.15,7.79-2.09,15.79-2,23.76.2,14.88,1.87,29.69,1.48,42.77-.39-3.35,0-8.56-.16-13.73-.33-12.78-2-25.52-1.21-38.34,1-17.71,8-33.14,17.75-47.56a102.8,102.8,0,0,1,13.9-17c1.69-1.62,3.59-3.08,1.54-5.84-1.14-1.54,0-2.58,1.56-2.71,2.84-.23,3.32-2.1,3.7-4.41a152,152,0,0,0,2-18.29c.09-2-.17-4,1.39-5.66a247.23,247.23,0,0,1,38.86-.65c8.71.55,15,5.69,19.5,13.1,5.69,9.39,7.37,19.82,8.08,30.52,1.45,21.75,4.71,43.31,7,65,1.63,15.22,3.52,30.41,5.31,45.61a16.07,16.07,0,0,1-1,7.37c-11.72,31.95-21.82,64.45-32.87,96.63-.76,2.23-1.53,4.05-4.39,3.26-8.59,1.34-17.07-.28-25.58-1-1.48-.11-3.68-.4-3.87,1.26-.77,6.58-6.34,7.85-10.76,10.45a91.77,91.77,0,0,0-15,16.88c-2.79,3.47-3,7.56-3,11.76,0,6.17-.62,6.69-6.7,7.34-5.95.21-11.79-1.43-17.74-1-8.15.68-8.72.93-8.35,8.86,1,22.07,1.25,44.17,2.78,66.21.52,7.47-.43,15,.57,22.42.95,7.07.44,7.48,7.55,7.73a5.49,5.49,0,0,1,1.92.52,3,3,0,0,1,1.33,1.29c2.69,12.48,1.62,25.13,1.79,37.73,0,1-.09,2,0,3,.17,4.82.17,9.64,0,14.45-.65,24.4,1.19,48.77,1,73.17,0,2.78.44,5.7-1.52,8.14l-.24,22.95c-1.75,1.72-4,1.39-6.11,1.4q-15.66.08-31.32,0c-6.45,0-6.45-.06-7.25-6.39l-.42-2c-.59-1.67.27-3.53-.67-5.16-.08-1.6-.17-3.21-.25-4.82-.75-1.63.23-3.5-.73-5.1l0,.06a6.11,6.11,0,0,1-1.06-1.47c-2.12-15-3-30.06-4.51-45.1-.71-7.26-1.44-14.53-1.95-21.82.15-3.66-.58-7.25-.95-10.87-.52-5-.89-5.4-5.8-4.67-12.14,1.82-24,5-36,7.49-7.76,1.62-15.41,4-23.47,3.93a2.59,2.59,0,0,1-1.26-1.29,13,13,0,0,1-.69-4.91q0-47.28,0-94.55a29.23,29.23,0,0,1,.23-3c.33-3.14,2.34-5.43,4.11-7.83,3.68-5,6.83-10.17,8.49-16.25,2.79-10.21.11-18.63-7.71-25.6-1.82-1.63-4.17-2.86-4.75-5.59a31.94,31.94,0,0,1-.41-7q0-62.34,0-124.68c0-2.93-.6-6,1.68-8.57,13.84,4.06,27.71,8,41.49,12.24,3,.93,3.69.4,3.63-2.65-.52-26.25-.92-52.51-1.36-78.76a10.15,10.15,0,0,1-1.25-4.77,409.84,409.84,0,0,1,2.25-52.78c1.23-10.95,6.48-19.54,16-25.17,6.51-3.87,12.84-8.22,20.36-10.08,4.09-.58,7.44-2.61,10.54-5.2,1-.82,2.08-2.12,3.43-1.55,1.53.65.68,2.36.72,3.56.58,14.65-.76,29.22-2.16,43.76-2.08,21.65-4.26,43.28-5.09,65-1.09,28.42-.2,56.8.28,85.2.07,4.13,2.07,4.19,5,3.81,1.53,1.19,1.36,2.95,1.42,4.56.18,5.27,2.42,9.4,6.17,13.08,2.28,2.23,3.48,1.52,5.15-.44,1.89-2.21,1.92-4.78,2.09-7.46.21-3.21-1-6.64,1.3-9.58l2.91-.08c1.81,4,1.77,8.4,1.9,12.56.24,7.82,1.07,15.58,1.73,23.35,1.25,14.52,11.81,18.94,21.66,15.54a65.29,65.29,0,0,1,8.27-1.9c3.25-.66,6.43-1.81,9.7-2.27s5.14-1.76,4.88-5.28c7-32.95,13.6-66,20.84-98.88a30.11,30.11,0,0,0,.58-7.45c-.59-18.12-1.81-36.21-2.7-54.31-.57-11.62-1.1-23.25-1.82-34.86,0-.48.05-1-.27-1.25,1.59,8.15.88,16.62,1.42,25,.66,10.27,1.24,20.6,1.26,30.91,0,6.67.56,13.29,1.07,19.93,1.28,16.65-2.14,32.77-5.46,48.92-4.9,23.88-10.06,47.71-14.65,71.65-.53,3.67-3,5.07-6.35,5.76A178.89,178.89,0,0,1,489,367.6c-9.92,1-17.64-4.85-19.15-14.68a158,158,0,0,1-1.67-18.28c-.37-10.58-2.06-21.09-1.57-31.71C466.6,302.67,466.27,302.44,466,302.28Z"/><path class="cls-2" d="M353.17,284.14c-.08,2.16-.24,4.31-.24,6.47q0,67.56-.06,135.13c-3.3.07-6.75.66-9-2.72.95-3.79-1.92-1.78-2.88-1.62q-13.53,2.31-27.05,4.75c-5.07.92-10.18,1.69-15.22,2.8a14.3,14.3,0,0,0-3.38.84c-1.85.9-2,2.6-1.65,4.28s1.9,1.62,3.24,1.39c6.06-1,12.16-1.94,18.2-3.15,2.27-.46,4.58-1.07,6.79.31-.08,5.22-3.13,9.38-5,14-1.84,1.3-4,1.55-6.15,1.89-21.53,3.49-43.09,6.8-64.64,10.12a37.7,37.7,0,0,0-5.88,1.14,3,3,0,0,0-2.36,3.35c.26,2.14,1.93,2,3.44,1.8,8.78-1,17.47-2.56,26.2-3.81,15-2.15,30-4.45,45-6.64,1.63-.24,3.27-.68,4.94-.2,3.54,3.46,5,7.9,6,12.58-.38.91-1.26,1.52-1.6,2.48-1.38,3.85-.32,5.37,3.8,5.44a14.4,14.4,0,0,1,3.46.28c4.42,2.08,7.25,5.95,10.42,9.42.9,1,1.4,2.28,0,3.44-4.4,2.33-9.32,1.73-14,2.4-6.84,1-13.77,1.35-20.56,2.73-12.34,1.49-24.71,2.68-37,4.23-.66.08-1.33.11-2,.22-1.52.25-3.13.55-3,2.58.17,2.38,2.09,2.41,3.71,2.17,4.11-.6,8.25-.85,12.37-1.2,8.58-.73,17.09-2.28,25.72-2.47,11.86-.6,23.63-2.3,35.47-3.33,5.27-.46,6-2.18,4-7.24-.12-4.08,3.43-8.22,8.52-10q0,49.2.11,98.39c0,2.16.17,4.31.26,6.47-2,1.81-4.12,1.58-6.29.31-1.4-2.44-2.59-4.69-6.22-4.75-22.64-.39-45.23,1.33-67.85,1.28-3.43.38-6.45-1.27-9.6-2.11-8.46-2.27-16.94-4.43-25.43-6.58-2-.52-4.32-.65-5.53-2.85-1.56-9.52-.49-19.11-.67-28.66-.08-4.21-1-8.63,1.53-12.57q.06-61.17.11-122.34c0-26.3.07-52.61-.08-78.91,0-3.46,1.09-4.69,4.38-5.78,7.62-2.53,15.64-4,22.78-7.92a2.72,2.72,0,0,1,2.69.88c4,3.89,7.22,8.59,11.72,12a2,2,0,0,1,.38,2.71c-2.21,2.31-5.3,2.59-8.11,3.53-1.42.47-3,.63-4.14,1.63a3.16,3.16,0,0,0-.93,4c.67,1.39,2,.92,3.08.64,3.07-.76,6.09-1.7,9.13-2.56,13.59-3.87,27.2-7.73,40.78-11.67.8-.23,1.6-.46,2.4-.67,2.45-.63,3.91-2.13,3.24-4.7-.81-3.19-3.14-1.59-4.86-1.1-10.56,3-21,6.27-31.62,9.2-1.75.48-3.46,1.3-5.35.68-1.94-1.5-.44-2.84.49-3.72a116.12,116.12,0,0,0,17.19-21.34,1.76,1.76,0,0,1,1.31-.62q24.65-7.71,49.28-15.39C349,285,350.9,283.74,353.17,284.14Z"/><path class="cls-3" d="M346.82,582.7l6.34.19c.32,0,.62,0,.93.06,7.17-.54,13.75,2.09,20.5,3.81,13.51,3.45,27,6,40.74.81,1.76-.67,3.59-2,5.63-.58,2.35,22.61,4.72,45.23,6.15,67.92-1.73.94-3.6.47-5.39.47q-148.11,0-296.21,0c-1.8,0-3.67.49-5.39-.49.67-6.37,5.15-9.78,10.16-12.48,10.92-5.9,22.88-8.51,35-10.46,8.77-1.41,16.95-4.15,23.83-10a63.77,63.77,0,0,1,27-17.12,58.61,58.61,0,0,1,31-2.13c5.87,1.18,11.82,1.92,17.77,2.6,11.46,1.32,22.19-1.75,32.37-6.54,9.93-4.69,19.77-9.54,29.91-13.78,4.67-1.77,9.58-2.43,14.48-3.16C343.42,581.54,345.26,581.41,346.82,582.7Z"/><path class="cls-4" d="M327.13,586c-16.45,6.94-31.46,17.3-49.56,20.33-9.58,1.6-18.92-.06-28.12-1.9-20.09-4-37.82.39-53.65,13.2a73.31,73.31,0,0,1-6.69,4.3L8.75,621.82H0c.28-3.83,3.25-5.76,5.5-7.74,16-14.06,35.21-20.75,55.85-24.14,1.61-.26,3.21-.56,4.82-.84,3.11,6.82,9.22,5.28,14.8,5.39,3.45.07,4.78-1.55,4.7-4.85-.07-2.65-.07-5.32,0-8,.07-1.82,0-3.69,1.42-5.16,6.52-2,13.16-1.15,19.75-.66,3.21.24,3.35,3.06,3.67,5.65.38,3.17-1.34,6.72,1.63,9.42,5.82,1.6,11.56.27,17.3-.52a2.8,2.8,0,0,0,2.58-2.64c.23-2.23-.09-4.35-2-5.86a19,19,0,0,0-3.54-1.81,20,20,0,0,1-11.29-15.49c-.74-4.48,1-7.86,4.26-11.06,5.49-5.35,12.44-7.33,19.37-9.4,6.65-2,10.38.88,10.24,7.83,0,2.53.64,4.08,2.9,5.14,4,1.89,4.78,5.22,3.91,9.22-1.49,6.83-5.22,11.77-11.92,14.23a28.32,28.32,0,0,0-4.18,1.64,4.1,4.1,0,0,0-2,5.12c.78,2.64,2.87,1.72,4.55,1.23a113.76,113.76,0,0,0,22.49-9.5c12.24-6.69,25-11.54,39-13a105.39,105.39,0,0,1,25.35.74,5.88,5.88,0,0,1,3.82,2.13c12.37,2.06,24.36,5.63,36.35,9.16l2.83.82c3.86-.76,7.56.34,11.24,1.13a201.58,201.58,0,0,0,38.07,4.46C323.51,584.54,325.59,584.32,327.13,586Z"/><path class="cls-1" d="M557.83,519.9q3.7,22.85,7.45,45.69a13.91,13.91,0,0,0,.83,2.34c2,2.48,2,5.56,2.51,8.47.92,5.06,1.69,10.14,2.55,15.21,1.32,7.85,1.31,7.82,9.5,7.87,6.3,0,12.61-.22,18.9.17,5,1,7.45,5.35,10.79,8.49,5.16,4.85,5.23,4.92,10.37,0,1.88-1.82,3.35-4.24,6.23-4.75,3.58,1.47,4.15,5.64,6.64,7.61-2-2.58-4-5.55-6.06-8.53a2.22,2.22,0,0,1,1.53-2.33,6.29,6.29,0,0,1,4.48.13c5.78,7.62,10.93,15.69,17.12,24.17-5.32-7.57-10-14.41-14.82-21.22-.64-.91-1.78-1.77-.29-2.9,4.05-1.24,8.19-.67,12.3-.49,2.33.09,3.89,1.62,5.25,3.36,2.95,3.79,5.61,7.78,8.4,11.67,7,10.19,14.63,19.89,21.41,30.22,2,3.06,4.51,5.8,6.44,8.94a3,3,0,0,1,.47,2c-.22,1.29.95,2,1.32,3-.06,2.31-2.87,1-3.46,2.66a6,6,0,0,1-1.64.57c-15.41.43-30.82.52-46.21,0a6.24,6.24,0,0,1-4.12-3.24c-2.74-4.46-5.91-8.64-9-12.9,3,4,5.66,8.22,8.58,12.26a2.21,2.21,0,0,1-.46,3.14,5.28,5.28,0,0,1-4.31.29c-5.27-5.67-8.75-12.67-13.71-18.57,3.89,4.74,6.88,10.14,10.73,14.92.86,1.08,1.62,2.23.14,3.44a6.8,6.8,0,0,1-5.09.25c-7-9-13.06-18.58-19.71-27.79-.94-1.31-1.91-2.58-2.84-3.88,6.39,9.23,13,18.29,19.27,27.64.81,1.22,2.07,2.38.32,3.82a6.54,6.54,0,0,1-5.15.11c-8.87-12.68-17.91-25.26-26-37.37.57,2.15,2.8,4.59,4.65,7.09,6.07,8.27,11.57,16.93,17.69,25.16,1,1.29,2.71,2.81,1,4.83a5.27,5.27,0,0,1-4.32.39c-5.54-4.88-8.43-11.75-13-17.38-2.68-3.33-4.68-7.18-6.71-9.47,4.47,6.34,9.69,13.69,14.75,21.14,1,1.5,2.25,2.85,2.65,4.69a2.47,2.47,0,0,1-1,1,6.83,6.83,0,0,1-1.4.35c-3.72.48-6.28-1.12-8.35-4.18-10.46-15.4-21.42-30.44-31.88-45.84-3.2-4.72-3.49-4.74-6.79-.13-10.65,14.86-20.93,30-31.55,44.86-1.15,1.61-2,3.44-3.91,4.43a1.3,1.3,0,0,1-1.33-.26l-3.72-.34c-.24-2,1.72-2.76,2-4.34,1.55-6,5.91-10.3,9.36-15.09,2.62-3.64,3.15-6.92,1.61-11.09Q515,594.11,502,558c-4.32-11.25-8.28-22.63-12.43-33.94-.82-2.23-2.81-4.92.5-7,10.6-1.36,21.26-1,31.82-.39,9.63.53,19.24.58,28.86.8C553.34,517.48,556.24,516.94,557.83,519.9Z"/><path class="cls-3" d="M912,606.94l5.06-.12c1.9-1,4.13.33,6-.86,5.71.33,11.21-1.25,16.71-2.21,8.93-1.56,17.49-.58,26,1.71,3.09.83,4.46.23,4.25-3.1a53.93,53.93,0,0,0-.18-6c-.44-2.42-1.06-4.3-4.57-4.62-8.64-.78-16.21-9.93-16.23-18.73,0-3.3,1.08-5.81,4.78-6.49,3-.54,3.71-2.17,3.34-5.34-1.06-9.2,2.6-11.58,11-7.6a24.86,24.86,0,0,0,8.54,2.46c5.51.5,15.42,10.33,15.06,15.19-.54,7.45-3.77,15.32-12.89,19.14-6.18,2.6-6.58,4.36-6.36,11.42.16,5.26,2.51,7.52,6.83,9.45,4.55,2,8.48,5.18,12.21,8.51,9.3,8.29,20.62,11.31,32.61,13.29,11.1,1.83,22.11,4.56,31.76,10.9,4.09,2.69,7.43,6,9,10.87-1.67,1.11-3.55.55-5.33.55q-43.56.06-87.13,0c-2.17,0-3.65-1.35-5.16-2.68-9.37-8.26-20.29-13.85-31.84-18.32-5.69-2.21-11.5-1.87-17.19-.34-10.65,2.87-19.92.87-28.27-6.5-6.5-5.73-13.42-10.9-22.16-13a35.66,35.66,0,0,0-15.31-.62c-6.05,1.13-12.11,2.25-18.13,3.49-10.56,2.18-20.14-.4-29.42-5a77.25,77.25,0,0,0-24.18-7.52c-5.11-.69-9.91.51-14.82,1.2-1.9.26-3.89,1.36-5.6-.54-1.27-6.51-.93-12.84,2.18-18.85,1.81-1,3.58-.37,5.27.3,11.72,4.69,23.62,4.16,35.64,1.34,9.82-2.31,19.44-5.53,29.51-6.74a13.7,13.7,0,0,1,2.48,0c11.31-.62,21.66,2.84,31.7,7.5,6.49,3,12.81,6.35,19.31,9.35,7.77,3.59,15.91,5.74,24.2,7.54A13.16,13.16,0,0,1,912,606.94Z"/><path class="cls-3" d="M519.07,660.92l1-.18c1.87,1.9,1.45,4.34,1.46,6.62.06,12.48.14,25,0,37.46-.06,4.27,1.46,6.54,5.5,8.21a33.91,33.91,0,0,0,22.93,1.41c6.74-1.9,13.56-3.42,20.67-3,3.22.19,6.48.52,9.07,2.38,4.64,3.34,9.75,3.92,15.19,3.65a39,39,0,0,1,7.48.24,12.18,12.18,0,0,1,1.79.4c9.46.89,18.95.25,28.42.34,16.31.15,32.62,0,48.92,0a10.43,10.43,0,0,0,4.41-.47c1.84-.76,1.81-3,3.18-4.11,7.78-.26,15.2-3.26,23-3.1a17.05,17.05,0,0,1,7.91,0c8.51.44,16.43,3.19,24.28,6.2,5.38,2.07,10.76,4.22,16.7,3.92,2.22,1.24,4.77-.18,7,.88h6.1c2.23-1.06,4.78.37,7-.88l5-.14c1.56-.92,3.47.28,5-.86A104.07,104.07,0,0,1,832,726.77c4.51,1.74,8.79,3.8,12.36,7.11-.77,1.67-2.11,1-3.11,1q-196.21.06-392.43,0c-1.4,0-3.73.79-4-.79-.39-2.11,1.45-4,3.06-5.3,8.63-7.07,18.16-10.77,29.51-7.68A21.85,21.85,0,0,0,498,716.72c5.17-4.2,11-7,17.95-5.73,2.93.55,3.29-.63,3.27-3.08C519.09,692.25,519.09,676.58,519.07,660.92Z"/><path class="cls-3" d="M233.05,568.92c-19.77-3.89-39-2.25-57.35,6.26C164.55,580.34,154,586.86,142,590.07c-2,.54-5.06,2.58-5.66-1-.5-2.93-2.12-7.25,3.23-8.49,7.89-1.84,13.43-6.12,15.08-14.58.78-4,.28-7-4.13-8.11-2.7-.7-4.1-2-2.9-5,1-2.54.71-5.2-1.32-6.91-2.35-2-5.46-1.6-8-.35a20.71,20.71,0,0,1-8.5,2.47,5.13,5.13,0,0,0-4.54,2.64,7.33,7.33,0,0,1-4.05,3.41c-4.12,1.71-5.41,5.44-4.87,9.44,1,7.84,5.17,13.51,12.86,16.28,3.89,1.4,5.78,6.71,4.05,10.44-.75,1.61-1.9,1.54-3.22,1.69a120,120,0,0,1-17.88.93c-1.78-.5-2.7-1.48-2.55-3.52.17-2.46-.29-5,.1-7.42,1-6.59-2.49-11.25-6-16.14-2-2.81-5.57-1.86-7.68-4,8.54-7,18.43-11.57,28.4-16a234.31,234.31,0,0,1,61.71-18c2.81-1.79.93-4.61,1.52-6.89.56-1.47,1.18-1.58,1.9-.1.34,2-.55,4.09.55,6l5,0a196.18,196.18,0,0,1,26.89,0c3.69-.71,7.35,2.06,11,.12Q233.09,547.95,233.05,568.92Z"/><path class="cls-3" d="M503.1,557.92q13.86,37.73,27.74,75.46a5,5,0,0,1-.84,5.1c-4.28,5.88-8.46,11.83-12.68,17.76-1.47-2-3.63-1.24-5.51-1.25-12.55-.06-25.1,0-37.66,0-.74-32-1.4-64-1-96.05,4.31-4.08,9.67-3.32,14.8-3S498.05,557.28,503.1,557.92Z"/><path class="cls-5" d="M763,586.81a89.92,89.92,0,0,0-2,19.07c1.78,5.64-.1,11.2-.51,16.76-.78,10.58-1.5,21.16-2.44,31.72a6.51,6.51,0,0,1-1,1.51v0c-1,1.53,0,3.37-.74,5a48,48,0,0,1-.33,6.8c-.88,4.78,1,7.94,5.12,10.09,1.32,1.48,3.21,2.17,4.69,3.42,1.77,1.73,4,3,5.13,5.35,1.38,2.93.34,5.68-2.65,5.3-13.28-1.68-26.94-2.66-37-13.38a4.08,4.08,0,0,1-.91-1.75l.75-1.67a82.72,82.72,0,0,0,0-19.89c-2.56-9.42-.9-19.18-2.29-28.73-1.11-7.72-1.91-15.49-3-23.21-1.47-8.63-2-17.36-3-26-.51-4.5.76-8.85.93-13.3a4.79,4.79,0,0,1,1.55-3.39,9.94,9.94,0,0,1,5.32-1.06q14.49-.07,29,0a10,10,0,0,1,5.32,1c1.56,1.34,1.74,3.21,1.57,5-.6,6.42-1.25,12.85-2.21,19.24A4.11,4.11,0,0,1,763,586.81Z"/><path class="cls-6" d="M689,713.91c-.6,1.65.63,3.65-1,5.11-9.27.85-18.57.2-27.85.34-7.48.12-15,0-22.44,0-5.62,0-6.15-.47-6.2-6.28-.08-10.46,0-20.93-.05-31.4,0-1.85.77-4.15-1.91-5.05-11-.57-11-.57-11,10.33,0,8.46,0,16.91,0,25.37,0,2.29.28,4.68-1.36,6.66-4.71.46-9.41.9-14.09-.22h0c-1.83-1.85-1.7-4.24-1.71-6.54q-.06-22.35,0-44.71c0-2.3-.15-4.68,1.57-6.59l1,0c1.44,4.91,5,5.8,9.6,5.53,19.88-1.19,39.8-1.45,59.67-2.89,2.82-.21,5.65-.09,8.47-.2,2.35-.09,4.69-.25,6.2-2.47h0a.66.66,0,0,1,1.08.08Z"/><path class="cls-7" d="M473.91,678.94l.15,34.93c-1,.77-2.23.51-3.37.51H384.58a8.49,8.49,0,0,1-2.46-.23c-2.91-.37-2.81-2.4-2.94-4.68-.22-3.77.85-6.62,4.33-8.36Q397.61,694,411.72,687c5.81-2.94,11.6-5.94,17.39-8.92,13.14.89,26.28.14,39.42.42C470.32,678.49,472.19,678,473.91,678.94Z"/><path class="cls-8" d="M63.92,522c2.73-13.32,10.89-20.52,23.37-21.09A25.74,25.74,0,0,1,113.36,522a24.67,24.67,0,0,1,0,7.86c-2.44,11.15-8.47,20.16-16.57,28-1.29,1.24-2.39,2.67-3.57,4-3.22,5.28-5.56,5.27-10,0-6.28-7.09-12.63-14.12-16.51-22.94a42.11,42.11,0,0,1-2.69-9A22.49,22.49,0,0,1,63.92,522Z"/><path class="cls-8" d="M275.13,327l-14.84-15c-4.34-6.84-8.6-13.71-9.43-22a11.49,11.49,0,0,1,0-4.85A24.19,24.19,0,0,1,279.61,263a13.78,13.78,0,0,0,2.49,0c10.67,4,17.47,11.13,18.42,22.93.43,5.25-1.29,10.12-2.82,15-4.92,9.77-12.31,17.56-20,25.13C277.22,327.47,276.41,327.93,275.13,327Z"/><path class="cls-8" d="M819.29,448.74c-3.21-6.32-7.51-12.11-8.39-19.49-1.26-10.58,2.23-19.07,11.19-24.78,8.76-5.58,17.87-5.24,26.81,0l2.13,1.25a28.69,28.69,0,0,1,9.26,17.33,12.27,12.27,0,0,1,0,4.83c-1,6.9-4.21,12.91-7.33,19-.52.82-.1,1.89-.69,2.7a93.84,93.84,0,0,1-11.59,12.89c-4.5,4.15-6.11,4.17-10.37,0S821.65,454.36,819.29,448.74Z"/><path class="cls-1" d="M730.32,676.67c9.32,9.38,21.6,11.44,33.82,13.64,2.26.41,5.21,1.49,6.33-.92.88-1.9-1.65-3.67-3.05-5.26-.88-1-1.79-1.94-2.69-2.91a.79.79,0,0,1,.31-1.14,236.46,236.46,0,0,1,25.51,18.4c2.12,1.78,5.08,3.7,4.17,6.69s-4.16,3.28-7,3.78c-11.49,2-22.74-.12-34-1.82-3.35-.5-6.65-1.37-10-2.14-2.79-.65-6.1-.48-7.1-4.2-1.83.78-2.41-3.71-5.28-.84-1.76,1.77-7.14-2.36-7.09-5.84C724.35,687.73,723.64,680.85,730.32,676.67Z"/><path class="cls-3" d="M189.17,521.09c-.36-.75-.73-.77-1.11,0-.37.34-.69.29-.94-.15a3,3,0,0,0-1.73-2.78c-7.82-4.47-11.62-12.11-10.15-20.55A8.87,8.87,0,0,1,176.8,494c3.59-5,8.75-7.81,14.34-9.83,4.56-1.64,7,.22,6.94,5.11,0,3.33-.25,6.11,3.62,8.19,2.84,1.53,1.66,5.57,1.15,8.38a15.21,15.21,0,0,1-9.6,11.86c-1.64.68-3.16,1.09-3.15,3.22C189.85,521.38,189.54,521.41,189.17,521.09Z"/><path class="cls-3" d="M87.11,577c0,4.79-.25,9.59,0,14.36.25,3.85-1.25,5-4.85,4.63a26.6,26.6,0,0,0-6.43,0c-5.45.73-9.58-.15-9.71-6.85l-.09-.4a25.9,25.9,0,0,0,0-11.62c-1.21-.3-2.61-.52-1-2.17,3.5-1.18,4.42-4.69,6.47-7.18,3.27-4,5-4,7.93.21C81.75,571.19,84,574.41,87.11,577Z"/><path class="cls-9" d="M87.11,577c-4.25.17-5.13-3.69-6.93-6.15-4.87-6.66-4.74-6.75-9.48.26-.92,1.36-1.75,2.79-2.79,4.06-.9,1.1-2,1-2.83-.21,1.64-4.51,5.25-7.76,7.67-11.78,1.15-1.91,3.27-1,5-1.16s3.61-.11,5.41-.15c3.34,1.93,6.67,4.78,10,0l2.84,0c2.33.62,5.25-1.09,7,1.26,3,3.95,7.52,7.94,8,12.28.39,3.62-.76,8.19-1,12.37-.12,2.08.1,4,2.08,5.18-1.62,0-3-.22-3-2.32,0-.83,0-1.65,0-2.48C109,577,109,577,98,577Z"/><path class="cls-10" d="M912,606.94l-1.22-.21c-1.77-2.36-1.18-5.12-1.18-7.72q-.08-44.44,0-88.88a19,19,0,0,0-3.57-11.62q-13-18.35-25.8-36.79c-1.71-2.46-3.64-4.77-4.74-7.61a4.8,4.8,0,0,1,2-5.16,1,1,0,0,1,1.44.12c8.4,13.71,18.29,26.4,27.27,39.72,2.22,3.3,4.62,6.49,6.78,9.83,1.19,1.85,5.16,4-.4,5.73-1.41.45-.61,3-.62,4.66Q912,558,912,606.94Z"/><path class="cls-11" d="M757,655.87a2.36,2.36,0,0,1,0-.75c2.62-2.5,5.94-1.8,9-1.81q91.6-.06,183.2,0h15a12.43,12.43,0,0,1,6.71,1.53H1065c-1.06,1.53-2.68,1.08-4.12,1.08Q908.92,655.91,757,655.87Z"/><path class="cls-11" d="M120.12,654.89l225.13.07q40.92,0,81.86-.05a5,5,0,0,1,.2.62c0,.1-.07.22-.11.33l-284.42.06c-6,0-12,0-18,0C123.19,655.88,121.41,656.47,120.12,654.89Z"/><path class="cls-11" d="M382.12,714.16l86.46-.1c1.83,0,3.65-.13,5.48-.19-1.11,1.46-2.71,1-4.16,1q-42,0-84,0C384.62,714.9,383.24,715.17,382.12,714.16Z"/><path class="cls-11" d="M731.77,655.15c-.13,6.62,1.1,13.29-.7,19.85,0-4.81-.26-9.65,0-14.44.24-3.87-1.28-4.77-4.89-4.71-12.13.22-24.26.12-36.39.14l-.69-1c1.22-1.35,2.89-1.53,4.54-1.55,11.05-.14,22.1-.12,33.15,0C728.65,653.4,730.48,653.55,731.77,655.15Z"/><path class="cls-12" d="M473.91,678.94c-13.22,0-26.43,0-39.64-.06-1.72,0-3.66.74-5.16-.85l.12-5.11c.49,4.65,3.36,5.19,7.47,5.1,12.4-.29,24.8-.12,37.21-.12Z"/><path class="cls-11" d="M879,449.07l-1-.05c-8.74,2.27-17.47,3-26.15-.29l1.13-1.84c2.27,2.1,5,.78,7.58,1.07C866.67,448.66,873,446.69,879,449.07Z"/><path class="cls-11" d="M222.05,526.84l-26.89,0A83.94,83.94,0,0,1,222.05,526.84Z"/><path class="cls-11" d="M66.13,577.08a14.9,14.9,0,0,1,0,11.63C66.09,584.83,66.11,581,66.13,577.08Z"/><path class="cls-11" d="M113.33,529.9l0-7.86A8.8,8.8,0,0,1,113.33,529.9Z"/><path class="cls-11" d="M63.92,522l0,7.89A8.59,8.59,0,0,1,63.92,522Z"/><path class="cls-11" d="M187.12,520.93c.32,0,.63.09.94.15-.81,2.21,1.95,5.43-1.92,6.78C187.54,525.7,187,523.27,187.12,520.93Z"/><path class="cls-11" d="M720,710.8h-7.91A7.83,7.83,0,0,1,720,710.8Z"/><path class="cls-11" d="M781.07,720.92c-2.15,1.71-4.65.68-7,.88C776.23,720.06,778.74,721.25,781.07,720.92Z"/><path class="cls-13" d="M765,680.08c-.1.38-.2.76-.31,1.14-1.59-.78-3.32-1.41-3.69-3.49A5.93,5.93,0,0,1,765,680.08Z"/><path class="cls-11" d="M768,721.8c-2.35-.2-4.85.84-7-.88C763.31,721.25,765.83,720.06,768,721.8Z"/><path class="cls-11" d="M189.17,521.09q.47-.09.93-.15c0,2,0,4,0,5.94C188.39,525.18,189.54,523,189.17,521.09Z"/><path class="cls-11" d="M923.06,606c-1.81,1.6-4,.74-6,.87C918.87,605.19,921.06,606.23,923.06,606Z"/><path class="cls-11" d="M250.83,285.12l0,4.85A4,4,0,0,1,250.83,285.12Z"/><path class="cls-11" d="M427.16,655.8c.93,1.6.8,3.36.73,5.1C426.51,659.36,427.24,657.52,427.16,655.8Z"/><path class="cls-11" d="M756.25,660.84c0-1.68-.77-3.49.74-5C756.84,657.56,757.6,659.36,756.25,660.84Z"/><path class="cls-14" d="M689.11,661l-1.08-.08,3.12-1.94C692,660.68,692,660.68,689.11,661Z"/><path class="cls-11" d="M428.14,665.72a9.91,9.91,0,0,1,.67,5.16C427.54,669.3,428.24,667.46,428.14,665.72Z"/><path class="cls-11" d="M791.07,719.92c-1.46,1.47-3.29.8-5,.86C787.54,719.28,789.39,720.12,791.07,719.92Z"/><path class="cls-11" d="M860.29,427.91v-4.83A4,4,0,0,1,860.29,427.91Z"/><path class="cls-1" d="M851.83,448.73,878,449l-2.07,4c-.17,2.85-2.2,4.73-3.68,6.87q-14.06,20.44-28.35,40.73c-2.31,3.27-5,5.28-9.2,4-16.75-.21-33.49,0-50.23-.1-1.79,0-3.75-.36-4.59,1.92q-.55,3.18-1.17,6.35c-.55,2.82-.53,5.26,2.93,6.28,2,.6,2.54,2.45,2.71,4.34.21,2.31.08,4.63.11,7,0,3.73-1.41,6.06-5.46,6.06-3.07,0-4.26,1.74-4.82,4.56-1.09,5.52-1.73,11.13-3.18,16.57-.77,2.9-2.06,5.48-5.91,3.81l-40-.23c-1.57,1.3-3.5,1.16-5.35,1.37-5.6,0-11.2.11-16.8,0-10.21.15-20.43,0-30.64.08-2.85,0-5.62-.16-7.86-2.24q1.74-22.72,3.46-45.46c.15-2,.2-4,.3-6,.95-8.45.95-8.44,9.8-8.47,11.94,0,23.89.28,35.8-.89,4.16-.12,8.34-.23,12.49,0,3.83.18,5.49-1.59,5.76-5.18a29.3,29.3,0,0,0,.35-3.48c-.51-12.33.76-24.62,1.23-36.92.5-13,.37-26,1.68-38.89a62,62,0,0,0,0-11c-.42-5.26-6.09-3.08-8.36-5.77-1-3.57-.7-7.29-.23-10.77,1.06-7.82-.06-15.78,1.85-23.5,4-2.6,8.4-1.24,12.63-1.45,5.82-.29,6.08-.48,6.28-6.32,1.24-36.42,1.21-72.85.9-109.28-.17-20.29-2-40.51-4.39-60.67-.64-5.44-1.14-10.91-1.45-16.39-.13-2.27-.68-5.34,1.53-6.45,2.56-1.27,3.5,2.17,5.23,3.37-1.65-6.93-4.43-13.53-5.74-20.54.91-3,2.86-2,4.52-1a29.67,29.67,0,0,1,4.81,4.09c1.78,3,5,3.6,7.85,4.87,6.32,2.84,10.83,7,10.72,15,0,.24.71-.46,0-.47a2,2,0,0,1,0-.49c0-.8-.19-1.66.52-2.31,1.21,3.65.78,7.4.72,11.13-.35,4.32-.69,8.64.19,12.95a102.74,102.74,0,0,0,6.92,29.83c4.28,11.19,1,21.46-4.91,31.17-4.24,12.81-2.91,26-2,39,1.31,18.58,5.83,36.72,9.6,54.93.52,2.5,1.24,4.83,3.29,6.51-1.86,7,.83,13.57,2.35,20.15a22.33,22.33,0,0,1-2.8,17.55,17.35,17.35,0,0,1-6.28,6.28c-5.87,3.76-11.83,7.39-17.72,11.14a19.37,19.37,0,0,1-4.08,1.83c-5,1.74-9.06-1-9.29-6.29-.37-8.46,1-16.9.35-25.36.59,8.2-.6,16.38-.4,24.58.17,6.75,3.83,9.25,10,6.89,7-2.65,14.28-4.41,21.41-6.66,1.57-.49,3.23-1,4.68.41,1.84,17.26.67,34.5-.22,51.75,0,1-.06,2-.09,3-.29,1.5-.92,3,.23,4.44,2-2.64,4.29-5.1,5.85-8,2-3.75,4.82-4.73,8.91-4.54,6.8.33,13.63,0,20.46,0,4,4.34,8.17,8.61,12.09,13.05,2.68,3,5,3.63,7.93.25C843.32,457.46,847.64,453.15,851.83,448.73Z"/><path class="cls-1" d="M658.32,361.32c-1.86-.54-1.71-2.34-2.1-3.65q-11.4-38.39-22.64-76.82c-1.36-4.64.2-9.27.69-13.84,3.12-29.25,6.13-58.52,9.9-87.69C645.9,166,651.73,154.76,665.3,149c3.91-1.67,7.82-3.51,11.76-5.22,5.58-3.48,11.35-6.36,18.25-5.53a106.79,106.79,0,0,0,1.28,14.85c.44,3.36-.53,7.56,3.8,9.46.31.14.64.48.58.76-1.38,5.91,4,7.78,6.76,11.13C720.65,190.35,729.55,207.86,729,229c-.36,12.92-1.39,25.82-1.5,38.75.13-12.69,1-25.35,1.54-38,.83-19-6.23-35.41-17.25-50.4-1.36-1.86-3.26-3.41-3.11-6,5.89-10.7,8.65-10.75,15-.7,7.82,12.4,10.7,26.09,10.88,40.45.21,16.8.67,33.65-.11,50.42-1,21.58-1.15,43.2-2.67,64.76-.59,8.46,0,17-.22,25.46-.06,2.35.69,5.13-2.21,6.59-1.57-1.6-.17-3.74-1-5.54-.06-.61-.58.44,0,.1.16-.1.25,0,.26.35.49,12.36-1.31,24.63-1.66,37a8.31,8.31,0,0,1-2.09,6A10.2,10.2,0,0,1,721,399.9a28.35,28.35,0,0,1-6.63.5,45.62,45.62,0,0,0-7.11.16,2.53,2.53,0,0,1-1.44-.5c-1.35-1.88-1-4.07-1-6.17-.23-8.93-2.2-11.3-11.09-13.24a5.94,5.94,0,0,1-1.79-.78c-2.53-1.77-3.82-4.68-6.13-6.65-3-2.9-7.12-4.7-8.53-9.24-.65-2.06-3-1.45-4.79-1.6C667.73,362,662.9,363.29,658.32,361.32Z"/><path class="cls-15" d="M557.83,519.9a12.69,12.69,0,0,0-3.29-.89c-21.88.23-43.72-1.77-65.6-1a20.87,20.87,0,0,1-16.72,0l-.41,0a2,2,0,0,1,1.89-2c4.35-.39,4.66-2.85,4.21-6.59-3.68-30.18-7-60.39-11-90.54-.37-2.87-1.46-5.87.19-8.75,6-.72,11.95,1.16,18,1,4.46,1.4,8.74-1.53,13.18-.53,13.53.93,27.08,1.67,40.59,3,2.15,0,4.35-.18,6.13,1.44,7,1.55,14.18,1.4,21.27,1.85,3.3.21,4.22,1.51,4.65,4.34,4.8,31.53,9.6,63.07,14.59,94.57.5,3.11-.23,3.81-3.09,3.7q-9.72-.37-19.45-.42C561.25,519,559.28,518.16,557.83,519.9Z"/><path class="cls-15" d="M706.11,399.93H707c2.24-1.12,4.78.27,7-.85l7-.15c6.8-1.18,7.54-.61,6.76,5.87-3.64,30.32-7.52,60.6-11.27,90.9-.26,2.05-.78,3.9-2.44,5.25-13.08,1.28-26.2,1-39.31.93-3.94,0-6.58.39-5.8,5.23.08.53-.47,1.17-.73,1.75-.3-6.75-.3-6.84-7-6.72-14.12.24-28.26.39-42.36,1-4.38.19-5.4-.89-4.72-5.09,3.9-24.26,7.62-48.55,11.4-72.83.82-5.25,1.93-10.48,2.43-15.76.31-3.31,1.36-4.59,4.83-4.6,5.14,0,10.28-.84,15.42-.94,3.18-.06,4.45-1,4.33-4.35s-.61-6.64.38-9.9c2.26,2.07,1.43,4.83,1.57,7.34s.68,4.53,3.77,4.52c6.64.35,13.16-1.37,19.78-1.12,4.59-.89,9.33.27,13.9-1,.79,0,1.55.12,2.33.15C698.17,400.51,702.22,397.4,706.11,399.93Z"/><path class="cls-16" d="M695,138.13l-18,5.6c.8-7-1.25-13.52-4.1-19.76-4-8.78-4-17.13.92-25.71,5.47-9.58,8.37-20.23,11.23-30.81A32.47,32.47,0,0,1,713.57,44c4.57-.36,9-2.41,13.58-2.75,14.28-1,25.6,6.68,31.46,21.24,5.14,12.78,8.72,26.13,15.09,38.47,2.81,5.45,2.34,11.81-.42,17.41-5.47,11.1-6.89,22.42-2.89,34.24a15.37,15.37,0,0,1,.47,6.9,2.15,2.15,0,0,1-1.7-.89c-3.6-6.3-9.34-8.34-16.18-8.21-2.13.4-2.49-1.61-3.56-2.64-1.48-1.45-2.82-3.16-5.28-2.59-2.24-1.47-2.83-3.82-3.32-6.22a34.53,34.53,0,0,1-.15-4.07,28.91,28.91,0,0,1,.37-6.57c.09-6.08,2.9-10.91,6.38-15.72,3.37-4.66,4.28-10.33,4.25-16.09a54,54,0,0,1,.27-8.43,9.26,9.26,0,0,0,0-4.44c.41-4.35-.94-6.46-5.92-6.64a49.34,49.34,0,0,1-19.65-5.37c-3.22-1.57-5.31-1-6.78,2.32a29.76,29.76,0,0,1-5.6,8.23,11.06,11.06,0,0,1-7.79,3.9c-5.16.27-8.42,6.83-4.46,10,7.92,6.27,5.22,14.8,6.53,22.43.61,3.55.19,7.31.35,11-.79,2.84-3.09,4.39-5.2,6.11-2.37.95-4.67,2.08-7.07,3A1.56,1.56,0,0,1,695,138.13Z"/><path class="cls-16" d="M434.26,122.17a173.16,173.16,0,0,1-15.95,9c-11.9,6-18.3,15.54-19.34,29.11-1.4,18.22-1.65,36.45-2,54.69-8.21-1.42-16.21-3.36-23.37-7.92-19.75-12.54-27.58-33.76-23.9-53.61,4.42-23.86,21.6-40.24,44.91-43C409.14,108.63,423.05,111.44,434.26,122.17Z"/><path class="cls-1" d="M436.31,39.13c-5.12-6.39-5.15-7-.69-14.4l-4-2.86c3.91-3.48,5-7.9,5.78-12.73,1.07-6.88,7.42-10.52,14.3-8.66a33.81,33.81,0,0,1,7.88,3.06c7.55,4.28,15.14,7.28,24.23,7.33,8.39,0,16.81,12.56,15.83,21.72-.76,7.1-1.84,14.17-2.77,21.25-7-2.61-10.74.31-10.57,8.32.09,4.15.08,8.3.26,12.45.27,6.42-1.3,12.19-6.52,16.49-9.26,6.59-19.52,7.56-30.33,5.44-6.18-.66-10.8-3.18-11.87-9.94-.52-4.91-.11-9.84-.2-14.76,0-.89,0-2.79.68-2.47,4.16,2,6.29-3.06,9.89-2.59,2.13,0,4.25,0,6.37-.13,5-.74,9,1.76,13.2,3.79,6.1,3,8.63,2.11,11.4-4a23.91,23.91,0,0,0,2.51-9.6c.08-7.66.14-15.32,0-23-.11-5.35-2-6.85-7.23-6.08a147.56,147.56,0,0,0-15.1,3.38,23.18,23.18,0,0,1-13.25-.47c-6.11-2-6.34-1.69-7.6,4.41C438.16,36.65,438.55,38.62,436.31,39.13Z"/><path class="cls-7" d="M463.1,317l0,11.44a15.77,15.77,0,0,1,0,2.48c-.54,3.61-3.47,5.75-6,7.47-1.59,1.09-2.27-2.64-3.88-3.75-6.39-4.39-6-11.2-6.21-17.8-.71-18.6-1.27-37.21-2.18-55.8-2-41.61,0-82.77,12.77-122.83a8,8,0,0,0,.43-3.39c-.92-7.34-.88-7.62,4.39-15.31,2.32,4,4.42,7.87,6.74,11.6,1.52,2.42-.6,3-1.83,3.56-3.37,1.57-4,4.21-4.29,7.63-1.84,24.87-5.08,49.66-4.7,74.64.5,32.08,2.41,64.12,4,96.17A27.83,27.83,0,0,0,463.1,317Z"/><path class="cls-5" d="M664.45,560.28,703,561c1.2,3.41-.43,6.5-1.28,9.61-3,10.84-6,21.67-8.5,32.63q-4.45,18.3-8.07,36.78c-.41,2.1-.05,4.78-2.74,5.92-7.2-10-14.83-19.65-21.19-30.21-3.17-6.82-1.63-14.06-1.51-21.07a173.28,173.28,0,0,1,1.66-21.3,12.62,12.62,0,0,1,2.62-6.32C664.42,564.81,665.74,562.65,664.45,560.28Z"/><path class="cls-8" d="M626.83,603.66c-2.87,2.75-5.85,5.4-8.58,8.29-2.29,2.43-4,2-6.1-.26-3.5-3.77-7.19-7.36-10.79-11-6.66-6.32-11.45-13.5-10.8-23.21a4.47,4.47,0,0,0-.32-2.42c.73-21,20.48-29.82,35.36-23.13,8.21,3.69,12.53,10.51,14.53,19a4.71,4.71,0,0,1,1.15,3.2c-.46,10.45-3.53,19.73-12,26.56l-1.41,2C628.05,603.59,627.41,603.6,626.83,603.66Z"/><path class="cls-5" d="M436.31,39.13c.65-3.05,1.18-6.13,2-9.14.56-2.14,1.49-3.42,4.23-2,6.54,3.38,13.4,3.15,20.32,1a56.06,56.06,0,0,1,13.63-2.72c4.28-.23,6.6,1.53,6.58,6,0,8.48.14,16.95,0,25.43-.06,4.42-1.86,8.4-4.18,12.08-3,4.8-5.39,5.36-10.37,2.63-4-2.22-7.9-4.91-12.84-4.57-5.35-4.19-5.09-9.24-3.06-15.15,2.54-7.39,1.35-8.6-6.54-8.63a18.64,18.64,0,0,1-2.48,0,25.67,25.67,0,0,0,3.72.06c5.64.14,7,2,5.67,7.45-.15.64-.36,1.27-.56,1.9-1.49,4.72-3.45,9.49,2.07,13.12-2.25,1.87-4.66.21-6.52,1.47a6.34,6.34,0,0,0-5.16,2.57c-2,2.44-3.38,3-5-.65V86.6c-1.45-6.07-.67-12.15-.23-18.25C438.3,58.57,439,48.77,436.31,39.13Z"/><path class="cls-5" d="M508.05,376c1.05-1.71,3-2.07,4.61-2.71,3.47-1.37,6.09-3,5.71-7.43-.21-2.34,1.31-3,3.58-2.73,9.22,1,18.45,1.78,27.67,2.65-5.85,2.31-6.57,8.45-6.51,12.72.07,5.6-1.26,10.37-3.06,15.32.09,3.1-2.16,5.4-2.85,8.24-1,3.3-3.32,5.18-6.46,6.34-2.86,1.05-17,2.48-20.11,1.8a15.39,15.39,0,0,0-3.95-.11c-6.73.23-9-2.63-7.36-9.23.16-.64.38-1.27.55-1.91,1-2.86,2.09-5.67,2.8-8.62C504.21,385.43,505,380.28,508.05,376Z"/><path class="cls-5" d="M692,400.14c-4.05,3.45-8.75-.26-13,1.17a62.29,62.29,0,0,0-7.53-1.5c-6-1-9.06-5.33-10.43-11a38.48,38.48,0,0,1-2-6,34.28,34.28,0,0,0-.84-4.59c-.15-3-.84-6.1.72-9,1.57-1.34.53-2.88.32-4.35-.32-1.18-.63-2.36-.94-3.54,5.93-.05,11.86-.12,17.8-.13,1.08,0,3-.29,2.82,1.13-.59,5.45,4.18,6.41,7,9a9.09,9.09,0,0,1,1.14,1.58c.91,2.11,2.18,4.09,2.3,6.47a50.63,50.63,0,0,0,1.59,7.08c.67,2.06.41,4.3,1.22,6.34C692.79,395.27,694.17,397.77,692,400.14Z"/><path class="cls-5" d="M480.05,89.89c5.35-5.72,5.54-12.67,5.21-20-.23-5-1.77-10,1.4-14.92,3.79-5.92,5.53-6.42,10.19-1.18,1.59,5.6.89,10.64-1.19,16.31-1.82,5-.61,11.12-.45,16.74.08,2.87-.57,4.89-3,6.78-9.49,7.49-18.79,15.23-28.17,22.87-.71.59-1.68,2-2.42.95-3.32-4.68-9.53-7.54-9.39-14.45C463.67,103.18,472.49,97.86,480.05,89.89Z"/><path class="cls-3" d="M629.27,600.69c6.58-8.84,11.68-18.22,10.86-29.76,8.43,1.7,16.23-.43,23.82-3.88-3,16.11-2.86,32.4-2.78,48.69-3.45-3.19-5.88-7.2-8.39-11.07-1.95-3-4.17-4.32-7.75-3.95-3.29.34-6.64.2-10,.27a1.76,1.76,0,0,0-1,0Z"/><path class="cls-7" d="M786.26,352.14c-2.64.12-3.89-.64-4.47-3.75-3-16.23-6.84-32.31-9.48-48.59-2.13-13.12-1.51-26.49-1.15-39.75a14,14,0,0,1,3.83-9c1.27,27.27,8.57,53.6,12.55,80.46.88,5.9,1.86,11.79,3.14,17.62.65,2.94-1.07,2.89-2.89,3.15A1.21,1.21,0,0,1,786.26,352.14Z"/><path class="cls-3" d="M590.24,575c.83,9.79,5.75,17.8,11.11,25.63-8.93,0-17.86.05-26.79.12-1.9,0-3.43.12-3.82-2.54-1.47-10.12-3.76-20.11-4.63-30.32,8.3-.53,14,4.9,20.26,9C589.2,578.73,590.31,578.54,590.24,575Z"/><path class="cls-7" d="M509.07,104.94c.26,7.81-.79,15.51-1.9,23.22-.56,3.9-1.46,6.84-8.06,5.68,6.49,4,3.52,6.19.86,8.92-15,15.37-26.14,33.1-30.28,54.41-2.15,11-2,22.32-1.05,33.64.86,10.65.19,21.43-.08,32.16-1-6.88-.88-13.85-1.22-20.74-.66-13.57-2-27.17-1.25-40.79.51-8.72,3.21-16.92,6.77-24.79,5.63-12.49,12.58-24.12,22.71-33.63,5-4.69,4.88-4.82-.68-9,.12-.26.22-.74.37-.75,10.48-1,7.71-.24,9.85-10.91,1.22-6.1-.25-12.49,2.2-18.42Z"/><path class="cls-17" d="M786.26,352.14l1.54.15c-.59,3.3.39,5.81,3.52,7.36a4.86,4.86,0,0,1,2.76,3.29c1.93,7.21,4,14.37,6,21.56,1.06,3.78.21,5.83-4.31,5.05-2.6-.45-5.45,2.65-8-.79-.61-.82-1.48.6-1.78,1.6-.41,1.42.29,3-.77,4.32-2.12-1.71-1.17-3.68-.46-5.62,5.78-11,.66-21.54-1.39-32.15C782.81,353.84,783.69,352.76,786.26,352.14Z"/><path class="cls-7" d="M514.07,359c-.68,2.21,1.72,2.94,2.36,4.75-9.44,2.23-18.75,4.4-28,6.64-8.68,2.08-17.42-3.81-19.38-12.56-1.39-6.2-1.19-12.51-1.64-18.71-.54-7.39-1.25-14.82-1.35-22.26L466,302.28c.31-.3,1-2,1-.44.05,9.79,1.38,19.47,2.17,29.2.61,7.57,1,15.19,2.18,22.69,1.43,9.4,9.29,13.89,20.93,12.18,5.71-.84,11.31-2.39,17-3.4A6.3,6.3,0,0,0,514.07,359Z"/><path class="cls-7" d="M784.79,389.06c.15,1.88.31,3.75.46,5.63-.7,2.39.51,5.08-1.1,7.35a237.35,237.35,0,0,0-26.66,7.83c-5.78,1.95-10.21-.72-10.43-7a95.14,95.14,0,0,1,.83-14.88c.6-4.88.13-9.89,1.14-14.85,0,9,0,18.07,0,27.11,0,7.34,4,9.93,10.22,6C767.93,400.77,777.32,396.32,784.79,389.06Z"/><path class="cls-18" d="M480.05,89.89C476.31,98.6,460.73,106,452.26,103c-.83-2.19,1.67-5.7-2.58-6.5,4.45-.15,8.9-.17,13.33-.47C469.25,95.64,474.75,93,480.05,89.89Z"/><path class="cls-19" d="M536.37,400.87c1.19-2.38,1.85-5,3.68-7.08,3.63,1.83,5.14,4.82,5,8.84S545,410.87,545,415l-6,0c-1.51-1.76-1.32-3.82-1-5.89.34-1.7,1.17-3.36.39-5.14C537.82,402.84,537,402,536.37,400.87Z"/><path class="cls-19" d="M659.78,382q1,3,2.08,6.11c-3.4,4.39-1.39,10.16-3.75,14.82-3.85.66-5.44-.78-5-4.82a64.26,64.26,0,0,0-.19-8.43c-.25-3.91,2.71-5.66,5.2-7.73A1.08,1.08,0,0,1,659.78,382Z"/><path class="cls-20" d="M753,150.38c7.93-2.24,11.86-.23,17.88,9.1.15,2.21,1.65,4.17,1.21,6.5,0,1-.09,1.93-.13,2.9-1.89-8.11-7.41-12.33-14.85-14.92C755.58,153.43,752.5,153.63,753,150.38Z"/><path class="cls-21" d="M773,190.06c-1.61-4.3-1.35-8.61-.19-12.95Z"/><path class="cls-22" d="M784.07,461.22c-.09.59-.58,1.46-.84.5a6.14,6.14,0,0,1,.61-4.94C783.92,458.26,784,459.74,784.07,461.22Z"/><path class="cls-23" d="M659.26,364.86c1,1.53,3.11,3.14-.32,4.35C659,367.76,659.15,366.31,659.26,364.86Z"/><path class="cls-24" d="M659.78,382l-1.7,0c0-1.26.1-2.51.14-3.77C659.32,379.24,659.48,380.65,659.78,382Z"/><path class="cls-8" d="M323,467l-5.22-12.09c-2.63-2.7-2.6-5.65-.82-8.76.28-5,2.61-9.21,5-13.42,2.28-6.5,8.08-8.29,13.78-9.8,2.73-.72,6-2.63,8.67.49,2.87.64,5.86.86,8.5,2.33,13,8,16.92,20,11.36,34.27-2.64,6.78-7.26,12.25-11.44,18l-9,8.73c-1.12,1.68-2.29,2.33-3.62.21l-11.08-11.2C325.93,473.66,323.44,471,323,467Z"/><path class="cls-14" d="M467.13,410.12c1.31,9.8,2.65,19.59,3.93,29.39,1.62,12.42,3.59,24.8,4.65,37.27.86,10,2.24,20,3.33,30,.11,1,0,2,.16,3,1.09,6.41,1.1,6.38-5.23,7.21a7.79,7.79,0,0,0-2.16,1c-11.42-.27-11.4-.27-11.68-12.07-.35-14.9-.28-29.83-1.22-44.69-.87-13.87-1.11-27.75-1.75-41.62C456.72,410,457.18,409.86,467.13,410.12Z"/><path class="cls-25" d="M472.22,518a65,65,0,0,1,16.72,0l14.16,39.92c-.23,1.38-.77,1.8-2.35,1.45-4.15-.9-8.35-1.6-12.57-2.17-5.12-.7-10.1.26-15,1.7Q472.71,538.45,472.22,518Z"/><path class="cls-26" d="M421,587c-15.92,7.46-32,5.4-48.12.79-6.2-1.77-12.49-3.23-18.75-4.83,20.56-4.32,40.93-9.52,61.68-12.9,3-.49,4.23.4,4.29,3.56C420.14,578.07,420.64,582.53,421,587Z"/><path class="cls-7" d="M513.84,359.39c1.46-12.4,4.36-24.13,6.62-36,4-21.26,8.88-42.4,12.22-63.77a90.31,90.31,0,0,0-.36-28.31,12.22,12.22,0,0,1-.23-2.47c.65-13.31-.9-26.55-1.27-39.83-.26-9.6-.64-19.2-.78-29.83,1.84,3,3,5.52,2.89,8-.25,6.68.91,13.23,1.15,19.86.6,16.23.19,32.6,2.29,48.65,2.31,17.72-2.06,34.19-5.68,51Q523.43,320.36,516,354A11,11,0,0,1,513.84,359.39Z"/><path class="cls-7" d="M399,347c9.3,9.74,21.57,15.14,32.7,22.14,5.53,3.48,11.28-.65,11.39-7.58.18-12.1-1.66-24.16-1-36.29a20.42,20.42,0,0,1,.53-4.94c0,7.26,1.13,14.4,1.48,21.61.32,6.44-.38,12.88.85,19.35,1.16,6.05-1.33,10.15-5.71,11.9-2,.82-3.69.32-5.67-.3-11.06-3.43-22.19-6.61-33.3-9.88-1.82.24-1.76-.68-1.18-1.92-.41-4.38-1.39-8.72-1-13.17C397.89,347.12,398.19,346.8,399,347Z"/><path class="cls-7" d="M400.07,303.92c.39-6.59.27-13.26,1.32-19.74.91-5.58,1-11.2,1.51-16.77,1.49-16.46,2.73-33,4-49.43,1-12.39.71-24.88,1.21-37.32.24-5.88.73-11.77,2.57-17.46C409.48,210.21,410.06,257.34,400.07,303.92Z"/><path class="cls-27" d="M388.4,555c7.72,1.56,16.7.72,25.64,1,3.31.1,6.3,5.46,4.9,8.46-.45,1-1.05.92-2,.9-10-.21-19.92-.26-29.87-.58-2.59-.08-5.86.33-6-4.05C380.84,555.19,381,555,388.4,555Z"/><path class="cls-27" d="M408.66,500.69c-7.74-.63-15.48-1.27-23.22-1.87-4.86-.38-4.63-3.81-4.29-7.2.44-4.31,3.52-2.4,5.68-2.18,7.39.76,14.75,1.82,22.15,2.45,4.28.37,3.73,3.51,4,6.13C413.42,501.58,410.71,500.87,408.66,500.69Z"/><path class="cls-28" d="M410.9,543.75c-8.45-.33-16.89-.72-25.34-1-5.05-.15-4.51-3.6-4.44-7,.1-4,3.14-2.93,5.06-2.62,8.22,1.3,16.61.2,24.78,1.91C413.09,538,413.2,540.88,410.9,543.75Z"/><path class="cls-29" d="M438.55,209.78c-2.33-18.32-4.81-35.66-9.54-52.55-1.11-4-.83-7.11,2.28-9.89,1.94-1.73,2.33-3.33-.72-4.26-2.48-.75-2.61-1.91-1.17-4,2-3,3.72-6.22,5.84-9.83.9,1.9-.2,2.86-.69,3.82-1.92,3.78-3.69,7.33,2.43,9,2.22.62,1.8,2.27.26,3.25-6.29,4-5.05,9.12-3.68,15.36a207.5,207.5,0,0,1,4.54,34.37C438.32,199.68,439.88,204.21,438.55,209.78Z"/><path class="cls-27" d="M403.24,478.75c-5.39-.61-10.79-1.13-16.16-1.85-2.43-.32-5.51.25-6-3.6-.69-5.79.07-6.39,5.93-5.57,5.35.75,10.8.83,16.06,2.25A7.51,7.51,0,0,1,403.24,478.75Z"/><path class="cls-27" d="M381.21,383.67c-.51-4.07.67-5.19,4.47-4.07,4.1,1.22,8.42,1.66,12.63,2.48,1.82.36,3.26.9,3.92,3.14,1.75,6,1.09,6.92-5,5.82-3.9-.71-7.8-1.45-11.7-2.15C382.37,388.32,380.07,387.1,381.21,383.67Z"/><path class="cls-30" d="M504,391.22c-1.49,2.36-1.25,5.46-3.23,7.62-2.11,2.33-2.05,5.17-1.64,8,.27,1.91.32,3.64-1,5.17-4.33-.44-8.78,1.08-13-.89,3.85.49,5.33-1,5-5-.39-5.11-.75-10.43,4.06-14.15C497.26,389.17,500.49,388.65,504,391.22Z"/><path class="cls-31" d="M395.22,512.13c5.09.34,10.2.56,15.27,1,3.71.35,6.19,5.49,4.38,8.63a2.09,2.09,0,0,1-2.58.88c-5.66-1.41-11.58-.07-17.2-1.73C393.14,518,393,515,395.22,512.13Z"/><path class="cls-27" d="M381.22,317.81c-.61-4.39.87-5.56,4.73-4a41.24,41.24,0,0,0,7.64,2.13c3.26.6,5,1.47,4,5.56s-3,3.94-6.09,2.88a62.83,62.83,0,0,0-6.27-1.49C382.34,322.2,380,321.1,381.22,317.81Z"/><path class="cls-32" d="M399,347c-.31.31-.62.62-.94.92-4.18-1-8.35-2-12.54-3a6.15,6.15,0,0,1-4.19-8.69,2.11,2.11,0,0,1,2-1.12,14.94,14.94,0,0,1,14.93,10C398.47,345.73,398.72,346.34,399,347Z"/><path class="cls-27" d="M395,412.05c-3.45-.45-6.91-.79-10.32-1.41-1.95-.36-3.6-1-3.68-3.77-.18-5.79.13-6.22,6-5.05,3.38.68,6.77,1.31,10.15,2C396.31,406.5,397.11,409.65,395,412.05Z"/><path class="cls-28" d="M395,455.87c-3.69.51-7.12-1.08-10.71-1.37-2.35-.19-3.2-1.52-3.21-4,0-5.75,0-5.89,5.73-4.85,2.76.5,5.53.9,8.3,1.34C397.06,450,397.16,452.94,395,455.87Z"/><path class="cls-32" d="M395.22,512.13c0,3-.09,5.89-.13,8.83-3.13,0-6.26,0-9.38-.15s-4.74-1.67-4.74-5.35c0-3.94,1.49-4.93,5-4.43C389,511.48,392.13,511.77,395.22,512.13Z"/><path class="cls-32" d="M395.17,368.88c-3.38-.69-6.78-1.29-10.13-2.11-2-.49-4-.93-4-4-.08-5.58,0-5.83,5.54-4.87a37.14,37.14,0,0,1,8.58,2.18A7.47,7.47,0,0,1,395.17,368.88Z"/><path class="cls-33" d="M395,455.87c0-3,.07-5.92.11-8.88,3.25.38,6.53.62,9.76,1.18,2.86.49,5.17,5.53,4.11,8.34-.59,1.56-1.6,1.21-2.79,1C402.46,456.92,398.72,456.41,395,455.87Z"/><path class="cls-28" d="M395,412.05c.94-2.7-2-6.4,2.14-8.27,6.79.77,7.81,1.79,7.85,7.48,0,1.8-.44,3.2-2.41,2.55C400.12,413,397.32,413.62,395,412.05Z"/><path class="cls-34" d="M504,391.22c-3.37-1.33-6.56-.22-9.77.69,3.63-6.18,9-10.86,13.87-15.94Q506,383.59,504,391.22Z"/><path class="cls-31" d="M403.24,478.75l-.15-8.77c2.74.54,6.53-1.72,7.71,3C412.26,478.81,411.54,479.37,403.24,478.75Z"/><path class="cls-35" d="M410.9,543.75l.06-8.66c4.27-.76,6.36.53,6.19,5.36C417,545.78,413.41,543.51,410.9,543.75Z"/><path class="cls-36" d="M395.17,368.88l0-8.81a5.57,5.57,0,0,1,3.92,1,2.05,2.05,0,0,0,1.18,1.92c0,.16.09.32.12.48C401.79,370.17,401.61,370.37,395.17,368.88Z"/><path class="cls-37" d="M403,430.92c.74-1.29-1.22-4.05,1.34-3.93s2.7,3,2.69,5.17c0,1.5.68,3.88-2,3.6C401.85,435.43,403.59,432.62,403,430.92Z"/><path class="cls-14" d="M316.93,446.14q.4,4.38.82,8.76l-59.49,9c-5.9.9-11.8,1.83-17.71,2.62-1.7.22-4.28,1.72-4.4-1.84-.09-2.84-1-6,3.64-6.63,8.38-1.09,16.7-2.59,25-3.89Z"/><path class="cls-14" d="M322,363c.44,2.3-.32,3.71-3.36,4.41-22,5.11-43.93,10.48-65.92,15.63-1.4.33-4.2,2.91-4.51-.95-.2-2.57-1.71-6,3-7.1,13.26-3.11,26.44-6.57,39.65-9.87,8.7-2.17,17.41-4.3,26.12-6.47C322.12,357.36,322.12,357.35,322,363Z"/><path class="cls-38" d="M292.32,564.68c-14.44.89-28.89,1.48-43.36,1.4-3.12,0-6.19,1-9.38.95s-3.56-1.46-3.52-4,.19-4.16,3.4-4.09c6.31.14,12.63-.71,18.88-.75,13-.08,25.88-1.54,38.87-1.33,6,.1,11.86-1.13,17.87-1,3,.08,4.06,1,4,4s-.72,4.15-3.9,4.16C307.58,564.07,300,565.76,292.32,564.68Z"/><path class="cls-14" d="M305.17,520.92c-2.93,2-6.43,1.32-9.59,1.61-18.18,1.68-36.4,3-54.61,4.28-2,.15-4.9,1.43-4.92-2.72,0-3,0-5.35,4-5.66,12.91-1,25.79-2.27,38.68-3.38,8.76-.75,17.54-1.39,26.3-2.08A6.35,6.35,0,0,1,305.17,520.92Z"/><path class="cls-19" d="M282.29,536c19.7-1.33,39.4-2.71,59.11-4,5.14-.33,6.89,2.3,5.39,7.29-.63,2.1-2.18,1.66-3.59,1.76-7.61.56-15.22,1.15-22.83,1.6q-17.89,1.07-35.8,1.94a7.88,7.88,0,0,1-2.37-.66C280.19,541.27,280.08,538.61,282.29,536Z"/><path class="cls-14" d="M275.13,327l2.58-.88c13-2.93,25.49-7.32,38.29-10.81,1.8-.49,4.38-3.15,5.89.16a5.76,5.76,0,0,1-3.87,8.36c-17.71,5.05-35.42,10.14-53.17,15.07-1.36.38-3.88,2.64-4.38-.39-.41-2.5-2-6.17,2.37-7.54C267,329.67,271,328.31,275.13,327Z"/><path class="cls-19" d="M337.16,340c-10,4.14-20.68,5.77-31,8.79-8.43,2.47-17,4.5-25.54,6.58-1.41.34-3.89,2.5-4.26-.4-.33-2.61-2.12-6.52,2.66-7.8q14.91-4,29.79-8.11c9.42-2.62,18.82-5.33,28.23-8A7.41,7.41,0,0,1,337.16,340Z"/><path class="cls-19" d="M346.76,378.74c.63,3.32-.77,4.7-4.08,5.38-15.42,3.16-30.78,6.63-46.18,9.87-1.42.3-4,2.32-4.27-.71-.2-2.59-2.37-6.56,2.61-7.7,9.38-2.14,18.74-4.34,28.11-6.47,6.3-1.43,12.7-2.51,18.9-4.28C346,373.65,347.55,374.43,346.76,378.74Z"/><path class="cls-19" d="M327.13,586a201.92,201.92,0,0,1-54.9-7.11c.84-1.14,2.09-.82,3.21-.84,21.94-.38,43.89-.6,65.83-1.23,4.81-.14,6.28,1.47,5.55,5.87C340.13,583,333.63,584.54,327.13,586Z"/><path class="cls-38" d="M290.92,433.68c1.16,4.69-2.24,4.09-5,4.55-15.49,2.57-31,5.24-46.43,7.85-1.25.21-3.35,1.64-3.24-1.08.08-2.09-1.87-5.27,2.2-6.05,8.11-1.56,16.21-3.2,24.33-4.71,8-1.47,15.94-2.84,23.92-4.22C289.57,429.53,292.22,429.43,290.92,433.68Z"/><path class="cls-19" d="M340.22,487c1.26,1,2.44.33,3.62-.21,4.94.3,2.51,4.09,2.94,6.42.49,2.63-1.47,2.8-3.43,3Q324.3,498,305.26,500c-2.18-2.64-2.05-5.31-.11-8,6.25-2.38,12.94-1.86,19.39-2.91C329.74,488.18,335,487.64,340.22,487Z"/><path class="cls-19" d="M344.37,423.41c-9.15-.92-16.39,2.78-22.45,9.31-8.49,1.4-17,2.91-25.5,4.1-1.37.19-4.44,2.26-4.35-1.59.07-2.74-1.74-6.37,3.46-7.24,16-2.65,32-5.67,47.93-8.55,1.25-.22,2.75-1,3.25,1S346.15,423.2,344.37,423.41Z"/><path class="cls-38" d="M282.29,536l-.09,8c-12,1.19-24.07,1.81-36.14,2.08-1.47,0-2.93.51-4.41.58-2.21.11-5.17,1.89-5.56-2.43-.32-3.54.4-5.17,4.69-5.35C254.63,538.22,268.45,537,282.29,536Z"/><path class="cls-38" d="M305.15,491.94q0,4,.11,8c-12.34,1.27-24.68,2.39-37,3.88-6,.73-7.71-.23-7.24-5.06.18-1.78.73-2.62,2.65-2.8C277.51,494.68,291.33,493.29,305.15,491.94Z"/><path class="cls-38" d="M305.17,520.92l-.09-7.95q16.07-1.44,32.12-2.86a28,28,0,0,1,4-.11c2.1.13,4.75-1,5,2.94.21,3.45-.8,5.15-4.31,5.69-4.92.76-9.92.65-14.85,1C319.77,520.26,312.51,521.7,305.17,520.92Z"/><path class="cls-19" d="M275.13,415.8c.64,2.87-.61,4-3.52,4.52-10.3,1.81-20.54,3.95-30.83,5.84-1.59.3-4.22,2.51-4.56-1.17-.24-2.68-1.42-6.09,3.27-6.93,8.33-1.49,16.6-3.33,24.89-5,2.12-.43,4.35-.5,6.35-1.24C274.93,410.26,275.71,412.17,275.13,415.8Z"/><path class="cls-19" d="M291,476.12c.75,3.58-1,4.58-4.3,4.88-7.25.67-14.45,1.85-21.7,2.65-1.83.2-4.72,1.65-4.7-2.18,0-2.74-1.27-6.08,3.68-6.51,7.58-.67,15.12-1.88,22.66-3C290,471.52,291.84,472.34,291,476.12Z"/><path class="cls-39" d="M332.68,564.17c-3.15,0-6.31-.18-9.44.07-1.9.16-3.62.38-3.18-2.13s-2.08-6.43,2.31-6.9c7.07-.76,14.22-.67,21.33-1,3.4-.17,3.23,2.13,3.12,4.32s.92,5.37-3.19,5.35c-3.65,0-7.3,0-10.95,0Z"/><path class="cls-38" d="M291,391.06c.86,3.3-1.31,4.22-3.71,4.76-7.56,1.68-15.14,3.29-22.72,4.91-1.49.32-3.36.6-3.35-1.58s-1.58-5.15,1.62-6c8.45-2.21,17-4.13,25.52-6C291.79,386.48,290.73,389.41,291,391.06Z"/><path class="cls-40" d="M307.23,413.2c-9.5,1.81-19,3.6-28.48,5.47-1.74.34-2.6-.18-2.54-1.91.08-2.47-1.11-5.5,2.84-6.3,5.33-1.08,10.62-2.3,15.94-3.41,3.38-.7,6.77-1.32,10.16-2C307.06,407.47,306.32,410.54,307.23,413.2Z"/><path class="cls-38" d="M318.79,471.72c.89,4.25-.62,5.19-4.12,5.37-6.26.32-12.49,1.33-18.72,2.13-1.53.2-3.57,1.66-3.76-1.17-.17-2.43-1.41-6,2.36-6.66,7.47-1.35,15-2.36,22.57-3.11C320.33,468,318.22,471.09,318.79,471.72Z"/><path class="cls-38" d="M249,356.14c7.4-3.26,15.49-4.26,23.09-6.89,1.3-.45,3-.29,2.9,1.55-.15,2.18,1.76,5.31-1.95,6.28-8,2.09-15.77,4.68-23.93,5.93A5.23,5.23,0,0,1,249,356.14Z"/><path class="cls-19" d="M260.05,398.27c.65,2.7-.74,4.12-3.75,4.66-5.37,1-10.7,2.23-16.06,3.23-1.45.27-4,2.27-4-1.18,0-2.44-1.77-5.91,2.63-6.86,5.83-1.26,11.63-2.64,17.45-3.92C260.07,393.38,260.08,393.42,260.05,398.27Z"/><path class="cls-19" d="M259.85,500c.76,3.77-.41,5-3.76,5.1-5.1.22-10.17,1.23-15.27,1.62-1.77.14-4.68,1.55-4.7-2.29,0-2.69-.88-5.75,3.51-6.12,6.09-.51,12.14-1.43,18.23-2C261.55,496.07,259.35,499.2,259.85,500Z"/><path class="cls-38" d="M345.78,355.53c.94,4-.34,5.36-3.45,5.93-5.19.94-10.28,2.44-15.45,3.5-1.21.24-3.67,2.21-3.67-1,0-2.3-2-5.74,1.75-6.86,6.16-1.85,12.43-3.44,18.73-4.75C347.35,351.62,345.49,355,345.78,355.53Z"/><path class="cls-38" d="M314,403.14c5-1,10-2.22,15-2.81,1.48-.17,4.49-2.65,5,1.13.37,2.9,1.22,6.51-3.51,7.25-4.39.68-8.76,1.5-13.13,2.3-1.13.21-2.23.58-3.35.87A7.53,7.53,0,0,1,314,403.14Z"/><path class="cls-41" d="M335,313.77c.26-1.55-.94-3.93,1.53-4.56,3.14-.81,6.16-2.93,9.41-2.22,1.65.35.83,2.92.87,4.49,0,1.73.47,3.77-1.93,4.52-1.73.54-3.48,1-5.18,1.63C336,319,334.09,318.23,335,313.77Z"/><path class="cls-42" d="M249,356.14c0,2.29.07,4.58.11,6.87-2.5,2.16-5.8,2.07-8.73,3-1.25.39-3.56,2.26-4-.27s-1.92-6.1,1.67-7.29S245.09,355.62,249,356.14Z"/><path class="cls-43" d="M334,314.18c0,3.78-7.45,8.9-10.17,7.28-1.53-.91-.76-2.71-.76-4.1,0-1.66-.75-3.76,1.89-4.43,1.59-.4,3.11-1.08,4.68-1.59C332.62,310.4,335.08,310.15,334,314.18Z"/><path class="cls-11" d="M314,403.14q0,4.38,0,8.74l-6.77,1.32c-4.21-1.82-1.31-5.44-2.08-8.13C308,403.81,311,403.68,314,403.14Z"/><path class="cls-44" d="M337.16,340c0-3-.07-6-.11-8.94,3.05.39,5.68-1.61,8.66-1.58C347.08,338.17,346.53,338.85,337.16,340Z"/><path class="cls-45" d="M323,467l6.17,8.78a33.77,33.77,0,0,1-4.91.28c-1.45-.12-4.24,2.06-4.08-1.21C320.28,472.17,317.38,467.85,323,467Z"/><path class="cls-2" d="M603,661q.06,28.92.14,57.84l-15.49.14c-1.33,0-2.7.12-3.82-.81-8.73-7.29-18.59-6.16-28.41-3.39-10.69,3-21,4-31.43-1.2-2.89-1.43-4-2.72-3.94-5.82.1-15.66,0-31.32,0-47,12.11-17.27,24.32-34.48,36.26-51.87,2.5-3.65,3.57-3,5.72.12,10.92,15.89,22.11,31.59,33,47.52C597.09,659.61,599.32,661.31,603,661Z"/><path class="cls-4" d="M682.37,646q4.32-19.89,8.65-39.79c.25-1.12.7-2.2,1.05-3.3a3,3,0,0,1,.6-.8c7.46-5.22,27-4.63,34.32,1,2.23,9.82,3,19.86,4,29.84.69,7.37.58,14.81.83,22.22l-42.63-.21C686.35,652.35,684.43,649.09,682.37,646Z"/><path class="cls-14" d="M688,660.89c.59,3.53-1.3,4.13-4.33,4.07-11.08-.22-22.13.8-33.2,1.2-13.18.47-26.36,1.42-39.56,1.73-6.89.16-6.89,0-6.85-7a3.6,3.6,0,0,1,.8-.06,1.74,1.74,0,0,1,2.25,0H612a1.7,1.7,0,0,1,2.24,0l5.72,0a1.74,1.74,0,0,1,2.24,0h5.71a1.79,1.79,0,0,1,2.27,0l4.82,0a2.45,2.45,0,0,1,3.14,0Z"/><path class="cls-46" d="M648.45,632.34a6.73,6.73,0,0,1,1.06-.37c10.63-.61,15.44,2.39,19.64,12.22.37.88,1.05,1.74-.27,2.5-2.09,1.2-10.37-.22-11.89-2.28C654.16,640.57,651.47,636.63,648.45,632.34Z"/><path class="cls-47" d="M642,632c3.41,3.4,5.66,7.65,8.45,11.5,1.7,2.35,1.62,3.18-1.6,3.46-5.72.51-10.35-.39-12.83-6.39-.86-2.08-2.54-3.82-3.84-5.71a1.5,1.5,0,0,1,1.52-1.23c2.87,1.12,3.82,4,5.32,6.22,1.9,2.86,4.16,4.48,7.81,3.69-1.64-3.67-4.82-6.29-6.14-10C640.7,632.62,641.46,632.39,642,632Z"/><path class="cls-48" d="M614.23,660.86l-2.24,0c-2-5.75-6.21-10.06-9.49-15-5.1-7.65-10.42-15.15-15.08-23.11C596.52,635.39,606.26,647.5,614.23,660.86Z"/><path class="cls-49" d="M622.19,660.87l-2.24,0c-3-7.09-8.38-12.6-12.47-19-3.12-4.86-6.58-9.5-9.37-14.62A370.06,370.06,0,0,1,622.19,660.87Z"/><path class="cls-50" d="M607.11,660.9l-2.25,0-19.65-29,.95-.67Z"/><path class="cls-47" d="M634,601c.36-.64.71-.63,1,0l17.56,25.1-1.09.76C645.69,618.23,639.1,610.14,634,601Z"/><path class="cls-48" d="M630.17,660.88H627.9c-2.21-4.84-5.66-8.87-8.6-13.24-1.31-2-3.15-3.68-2.86-6.6Z"/><path class="cls-47" d="M638.13,660.89l-3.14,0c.18-3.78-3.24-5.58-4.67-8.47s-3.83-4.84-4-8.33Q632.22,652.51,638.13,660.89Z"/><path class="cls-51" d="M626.83,603.66l1-1c3.33,2.94,5.47,6.7,7.48,10.58C631.38,611,630.34,606.27,626.83,603.66Z"/><path class="cls-52" d="M633.14,633.84c-.32.33-.63.67-.95,1-1-1.46-2.82-3.14,1-3,2.93.11,5.87.09,8.8.13-.34.33-.68.66-1,1C638.58,635.21,635.77,633.74,633.14,633.84Z"/><path class="cls-14" d="M836.11,503.85c2.79.42,4.5-.78,6.13-3.12,11.13-16,22.43-31.84,33.67-47.74q16.89,24.09,33.79,48.18a6.86,6.86,0,0,1,1.33,4.16q-.15,50.7-.25,101.4c-11.37-.74-21.47-5.36-31.48-10.27-10.71-5.27-21.22-11.11-33.28-12.86-3.27-.48-6.61-.49-9.92-.72-1.92-2-1.67-4.61-1.67-7.08,0-21.61-.1-43.23,0-64.84.36-2.15-.11-4.43,1-6.46C835.66,504.28,835.88,504.06,836.11,503.85Z"/><path class="cls-26" d="M970.88,654.82c-2.16.09-4.32.25-6.48.25q-103.71,0-207.43,0a399.88,399.88,0,0,1,4-49.24c15.28-4.86,29.87-2.46,43.63,5a47.61,47.61,0,0,0,38,3.63c18.84-5.86,34.58-.83,48.48,12.09,7.6,7.07,16.25,9.26,26.18,6.35a31.2,31.2,0,0,1,23.1,2C951.44,640.15,962.74,645.06,970.88,654.82Z"/><path class="cls-2" d="M835.91,510.07q.09,36.41.19,72.81c-9.36.31-18.21,3.14-27.09,5.65-15.58,4.41-30.92,5.05-46-1.72-.28-8.57,2.15-16.93,2.09-25.49,3.12.31,4.31-1.37,4.77-4.23.95-5.9,2.36-11.73,3.08-17.66.43-3.52,1.63-5.23,5.27-4.61,4,.69,5.41-1,4.87-4.91a24.37,24.37,0,0,1,0-5c.22-3.25.26-6.08-4.45-5.42-2.1.3-2.21-1.18-1.88-3,.64-3.42,1-6.9,1.47-10.36a5,5,0,0,1,4.06-1.5c17.26,1.46,34.61,1.46,51.85,3.36A3.27,3.27,0,0,1,835.91,510.07Z"/><path class="cls-2" d="M603.13,718.79l14,0c1.8-1.55,4-1.49,6.17-1.39,3.9.17,5.25-1.71,5.23-5.42q-.1-15,0-29.91c0-2.47-.28-5,1.54-7.13,3.59-.51,3.07,2,3.07,4.16,0,11.48.25,23-.11,34.44-.14,4.6,1.41,5.47,5.64,5.42,16.47-.18,33,0,49.42.08-1.4,1.3-3.14.8-4.75.81q-37.8,0-75.59,0C606.16,719.82,604.36,720.47,603.13,718.79Z"/><path class="cls-3" d="M727,603.09c-11.61-4.44-23.26-3.66-34.92-.23,2.84-14.16,7.09-28,10.89-41.85l17.14.09c1.66.79,3.92.52,4.78,2.72C723.22,577,725.78,590,727,603.09Z"/><path class="cls-53" d="M724.88,563.82l-4.78-2.72h5C725,562,725,562.91,724.88,563.82Z"/><path class="cls-1" d="M630.05,674.92c0,13.12-.12,26.24.08,39.35,0,3.55-.64,5.28-4.58,4.77a81.79,81.79,0,0,0-8.44-.27c0-13,.07-26.1-.13-39.14-.06-3.59.8-5.23,4.66-4.82C624.41,675.11,627.25,674.9,630.05,674.92Z"/><path class="cls-1" d="M644.05,687.88a44.73,44.73,0,0,0-.06-7c-.86-5.3,1.53-6.28,6.34-6.23,4.48,0,6.19,1.13,5.81,5.81a101.23,101.23,0,0,0,0,15.38c.31,4.33-1.4,5.66-5.38,5.09a12.29,12.29,0,0,0-3,0c-2.76.29-3.93-.81-3.77-3.66C644.18,694.18,644.05,691,644.05,687.88Z"/><path class="cls-1" d="M663.09,687.6v-5.5c0-6.88,3.48-9.28,10.2-7.19,1.75.54,1.79,1.73,1.79,3.07,0,6.5-.07,13,0,19.49,0,2.56-.87,3.76-3.48,3.49-.33,0-.66,0-1,0-8.86-.06-7.43.62-7.55-7.37C663.07,691.59,663.09,689.6,663.09,687.6Z"/><path class="cls-25" d="M101.26,526.34a12.67,12.67,0,0,1-12.91,12.41c-7.17-.22-12.54-6.08-12.36-13.48A12.56,12.56,0,0,1,88.92,513C96.12,513.14,101.46,518.92,101.26,526.34Z"/><path class="cls-25" d="M288.52,287.2a12.78,12.78,0,0,1-25.55.38,12.78,12.78,0,1,1,25.55-.38Z"/><path class="cls-25" d="M848.14,425.36a12.48,12.48,0,0,1-12.45,12.76,12.63,12.63,0,0,1-13.12-12.68,12.9,12.9,0,0,1,13-12.86A12.6,12.6,0,0,1,848.14,425.36Z"/><path class="cls-25" d="M703.06,134.94a18.53,18.53,0,0,1,4.92-4.87c1.69-.49,2.32,1,3.18,1.83,4.15,4.27,8.24,8.61,12.65,12.6s7.31,8.45,8.29,14.24c1.81,6.27,3.7,12.51,4.19,17.24a75.47,75.47,0,0,1-1.63-18.58c-1.34-6.21,1.52-11.58,3.61-17.05.54-1.4,1.5-3.85,3.71-1.2l2.16,6c3.56,8.55,5.37,17.62,7.37,26.79l-7.15-8.88c-1,7.42.12,14.3,1,21,5.23,38.7,4.93,77.59,4.58,116.49-.17,19.78-.66,39.57-.83,59.36,0,3.08-.57,4.43-4,4.18-5.3-.38-10.64-.25-16-.33a2.81,2.81,0,0,1,0-3.6c1.22-8.06.8-16.2,1-24.31,1.09-39.2,3.32-78.38,3-117.62-.16-18.54-3.17-36-15-51-.41-.51-.86-1-1.52-1.72L709,174c-1.54.13-1.74-1.09-2.12-2.12-1-4-.92-8.23-1.88-12.28-.62-6.53-1.8-13-2.58-19.51C702.18,138.35,701.72,136.53,703.06,134.94Z"/><path class="cls-14" d="M714.05,501c1.33-9.8,2.69-19.6,4-29.4,1.62-12.43,3.18-24.87,4.76-37.3,1.37-10.8,2.9-21.58,4-32.41.49-4.86-3.81-2-5.79-2.91.78-1.06,2-.84,3-.93a2.2,2.2,0,0,1,3,0c10,.95,10.25,1,9.91,10.8-.66,19.22-1.18,38.46-2.29,57.63-.59,10.24.39,20.54-1.4,30.76-.6,3.46-1.87,4-4.75,3.88C723.69,500.89,718.87,501,714.05,501Z"/><path class="cls-54" d="M835,509q-25.69-1.4-51.38-2.77c-1.81-.1-3.63,0-5.45,0,.42-1.71,1-3.17,3.2-3.16q27,.15,53.91.29c.27,0,.54.36.81.55L836,504C834.81,505.5,836.19,507.47,835,509Z"/><path class="cls-55" d="M819.42,477.08c-7.54,13.46-7.85,13.67-19.29,12.82C804.28,478.76,808,476.23,819.42,477.08Z"/><path class="cls-55" d="M820.06,489.79c4.91-7.35,8-16.73,19.45-12.37C833.94,489.72,832.11,490.92,820.06,489.79Z"/><path class="cls-56" d="M755.3,156.54c2,3.19,3.37,5.23,4.6,7.35.77,1.31,1.63,2.69-.89,3.32-3.43.87-2.14,2.41-.41,3.94s2.85,3,2.09,5.64c-4.13,14.14-6.3,28.66-8.21,43.24-1.14-6.63.35-13.16,1.06-19.66.9-8.18,1.8-16.42,4.3-24.37.88-2.81-1.61-4.14-3.17-5.75s-3.45-3,.15-4.61C759.43,163.6,755.5,160.63,755.3,156.54Z"/><path class="cls-57" d="M727,398l-3,0c3-7.24,2.38-15,2.81-22.54.44-7.76,2.25-15.44.95-23.3h1.31v8c0,1.2,0,2.4,0,3.6-.37,10-.77,20-1.09,30A9.16,9.16,0,0,1,727,398Z"/><path class="cls-56" d="M751.59,222.86a4.76,4.76,0,0,1-.11,4.39A4.73,4.73,0,0,1,751.59,222.86Z"/><path class="cls-7" d="M686.32,184.19c1,11-1,21.6-1.67,32.32-.46,7.74-2.09,15.42-2.44,23.15-.62,13.91-3.66,27.68-3,41.59.68,15,2.49,30,3.69,45,.54,6.77.72,13.57,1.2,20.35.21,3-1.71,4.7-3.84,8.11-1.15-13-2.13-24.45-3.2-35.91-1.21-12.83-2.9-25.64-3.58-38.5-.33-6.18,1-12.47,1.92-18.68,2.15-15.38,4.49-30.73,6.68-46.1C683.53,205.08,684.9,194.63,686.32,184.19Z"/><path class="cls-56" d="M707.79,172.07c.43.64,0,1.82,1.19,2,10.68,12.07,17.8,25.88,20.47,41.85a24.07,24.07,0,0,1,.55,4.91c-.68,16.69-1.45,33.38-2.84,50.08,0-8.84-.94-17.79.18-26.48,3.08-23.8-2.58-45-16.64-64.21-2.77-3.78-6.14-7-9.33-10.34-1.4-1.48-4.44-2.74-1.33-5.42a.66.66,0,0,0-.18-1.18c-6.52-1.51-4.09-7.22-4.57-11-.59-4.59-2.9-9.41-.26-14.13a.49.49,0,0,1,.64-.25c3.09,0,2.61,2.52,2.65,4.23.1,4.14.8,8.22,1,12.33.18,3.74,1.81,5.83,5.38,6.54.72.34,1.93,1,1.44,1.59C703.08,166.45,706.39,169.06,707.79,172.07Z"/><path class="cls-30" d="M690.11,386.87c-1.33-2-1.32-4.45-2-6.67,1-1.54,2.53-1.31,4-1.1,1.18.84,2.51.39,3.79.5,5.64.49,9.59,4.81,10,10.95.2,3.12.12,6.26.17,9.39-4.39,0-8.65,1.68-13.09,1,3.24-3.07,4.75-6.65,3.23-11.11C695.32,386.54,691.82,388.53,690.11,386.87Z"/><path class="cls-58" d="M692.18,379.1c-1.09,1.3-2.69.72-4,1.1-.35-2.43-.71-4.87-1.06-7.3Z"/><path class="cls-30" d="M714,399.09c-2.17,1.71-4.67.62-7,.86C709.17,398.27,711.66,399.25,714,399.09Z"/><path class="cls-59" d="M498.09,412c0-3.3,0-6.6-.08-9.89-.07-2,.62-3.16,2.72-3.24.56,1,.07,1.89-.25,2.82-.71,2.06-1.39,4.07.71,5.86a5.45,5.45,0,0,0,6.4,1c1.09-.53,2-1,3.14,0,2.72,2.5,5.35,1.86,8-.24a2.69,2.69,0,0,1,2.61-.81c7.14,1.77,11.95-.4,15-6.57a3.07,3.07,0,0,1,2.61,2c-.08,1.69,1.23,3.35.15,5.07q0,3.52-.1,7Z"/><path class="cls-60" d="M658.11,403c0-3,0-6-.09-8.94s1.67-4.51,3.84-5.88c1.54,4.13,3.21,8.12,7.72,10,1.07.46,2.22,1.38,3.16.88,3.07-1.63,4.4.89,6.24,2.26C672.05,402.15,665.14,403.24,658.11,403Z"/><path class="cls-61" d="M697.38,389c1.33,2.8.48,5.77.62,8.65.18,3.75-3.81,1.49-5,3.35l-1-.81c.75-2.88-.71-5.44-1.2-8.15C692,388.81,694.84,389.23,697.38,389Z"/><path class="cls-5" d="M742,139.15c-1.38-.9-2-.21-2.39,1.1-1.68,5.5-4.91,10.65-3.77,16.78-1.14,2.48-2.88,2.32-4.86,1.11-1.46-8-8-12.28-13-17.65-3.29-3.52-6.67-7-10-10.42-1.52-8.15-1.06-16.46-1.87-24.67-.24-2.38-.06-4.55-2.84-5.7-5-2.06-4.86-6.49-4-10.59s3.55-5.46,7.92-4.29c2.28.61,4.16-1.77,5.74-3.37a30.31,30.31,0,0,0,4.13-5.58c4.57-7.54,4.59-7.7,12.42-4.4a51.84,51.84,0,0,0,21.2,4.39c2.35,0,2.42.93,2.36,2.56-.08,2-.14,4-.21,6-2.48.71-4.82-.65-7.33-.42-4.92.44-6.46,1.87-6.49,6.79a15.13,15.13,0,0,0,.6,5.41c.74,2.1-.21,3.9-1.64,5.41,2.27-2,1.84-4.25,1.36-7-.58-3.4-1.67-7.48,2.62-9.77,3.43-1.83,8.32-.72,11,2.43-.29,6.1.75,12.27-1,18.3-1.08,3.67-2.1,7.47-5,10.11-3.78,3.42-3.62,8.18-4.84,12.48-1.42-1-1-2.69-1.51-4.07-11.35,5.7-23-.51-30.56-16,1.31,2.6,1.9,5.45,2.86,8.17,4.36,12.48,13.18,18.5,26.59,18.12a3.28,3.28,0,0,1,2.33.63C741.89,136.33,741.94,137.74,742,139.15Z"/><path class="cls-62" d="M741.84,134.92c-18.9,4.25-31.43-11.77-32.65-30.68,3.41,7.19,7.21,13.15,13.07,17.22,6.12,4.24,12.66,6.06,19.56-.29.13,2.82.22,4.88.31,6.94Q742,131.51,741.84,134.92Z"/><path class="cls-63" d="M705.78,162.15c-7-.36-6.79-.92-7.95-7.62-1-5.54.74-11.41-2.16-16.65,2.27-1.45,4.49-3,7.39-2.94,1.05,8.34,2.75,16.61,3,25.05C706.6,160.79,706.76,161.54,705.78,162.15Z"/><path class="cls-64" d="M753,87.22a24.44,24.44,0,0,0-4.41-2.12c-5.82-1.5-8.88,1.07-8.45,7,.12,1.64.47,3.27.63,4.92.45,4.71-1.21,6.3-7.41,6,4.24-1.71,6-3.76,5.16-7.93-.73-3.46-2.36-7.73,1.64-10.52s8.45-2.16,12.7-.12C753,85.33,754.82,86.18,753,87.22Z"/><path class="cls-65" d="M448,68.06c1.54-1.39,3.56-.46,5.95-1.3-6.44-2.71-4.36-7.15-3.1-11.58,3-10.42,1.78-11.56-9.08-9.16a2.63,2.63,0,0,1-2.37-.29c3-3.24,11.36-4,14.37-1.28,1.62,1.44,1.57,3.21,1.11,5-.61,2.42-1.34,4.8-2,7.2-.85,3-2.38,6.17,2.1,7.81,1.84.67-.42,2.44.74,3.38Z"/><path class="cls-66" d="M455,80.18a21.18,21.18,0,0,1-3.31-.44c-.55-.18-1.32-.78-1.37-1.25-.11-1.06.82-1.28,1.7-1.22a22.12,22.12,0,0,0,7.43-.57c.84-.23,1.74-.42,2,.69s-.61,1.48-1.42,1.69C458.28,79.53,456.49,79.86,455,80.18Z"/><path class="cls-25" d="M615.6,561.82a12.56,12.56,0,0,1,12.45,12.8,12.81,12.81,0,0,1-25.62-.17A12.6,12.6,0,0,1,615.6,561.82Z"/><path class="cls-67" d="M468.08,47.9c2.25.08,4.95.32,5.12,2.77.07.91-1.88,3.92-4.05,4.08-3.16.23-1.09-5-4.58-5C465,47.67,466.7,48.12,468.08,47.9Z"/><path class="cls-68" d="M461.27,43.71c4.6-4.39,13.11-2.93,17.14,3.64C472.37,43.58,467,42.39,461.27,43.71Z"/><path class="cls-69" d="M449.19,50.72c-2.51-.22-1.25,3.57-3.89,3.45-3-.13-1.61-4.09-4-4.79.72-2.18,2.59-1.77,4.12-1.61S448.8,48.11,449.19,50.72Z"/><path class="cls-70" d="M697.38,389c-1.59,2.33-4.91.93-6.6,3-.22-1.7-.45-3.41-.67-5.12C692.76,386.76,695.94,384.81,697.38,389Z"/><path class="cls-71" d="M539.13,407.93c.64-1.71-1.85-3.33-.15-5.07C540.57,404.5,540.5,406.2,539.13,407.93Z"/><path class="cls-25" d="M342,461a12.67,12.67,0,0,1-12.92-12.43,12.81,12.81,0,0,1,12.54-13.39,13.34,13.34,0,0,1,13.09,12.53A13,13,0,0,1,342,461Z"/><path class="cls-1" d="M546.72,701.05c-4.34-.52-11.12,2.3-14.4-1.12-3-3.16-.81-9.83-.87-14.94-.11-10.22,0-10.22,10-10.22,6.32,0,12.64.12,18.94,0,2.82-.08,3.77.82,3.68,3.66-.18,6.31-.23,12.63,0,18.94.13,3.26-1.19,3.92-4.07,3.78C555.92,700.91,551.76,701.05,546.72,701.05Z"/><path class="cls-59" d="M573.06,687.64a44.87,44.87,0,0,0-.06-6.46c-.73-5.1,1-6.92,6.36-6.53,7.43.56,6.49-.69,6.55,6.82,0,5.47-.07,10.95,0,16.42,0,2.35-.81,3.07-3.16,3.22-9.74.61-9.73.69-9.73-9Z"/><path class="cls-72" d="M666.53,644.5c-10,2.81-10.64-6.22-15.19-10.87C659.5,632.27,661.24,633.55,666.53,644.5Z"/><path class="cls-72" d="M633.14,633.84c2.45-1.73,5.24-.46,7.84-.87,2.72,3.64,5.68,7.12,7.6,11.49-4.72,1.25-8.17.56-10.55-3.91C636.75,638.14,635.4,635.61,633.14,633.84Z"/><path class="cls-73" d="M857,527.09v-1.5c0-5.93,5-8.93,10.28-6.27,1.44.72,1.65,1.95,1.65,3.32,0,2.82,0,5.65,0,8.47s-1.22,3.72-3.92,3.87C857,535.44,857,535.53,857,527.09Z"/><path class="cls-74" d="M890,527.29c0,1.33-.11,2.67,0,4,.26,2.86-1,3.91-3.78,3.69-1.65-.14-3.32,0-5,0-.66,0-1.68.09-1.91-.27-2.68-4-1-8.58-1.16-12.89-.13-2.79,2.33-2.67,4.36-2.75C890,518.73,890,518.71,890,527.29Z"/><path class="cls-73" d="M857,567.07v-1.5c0-6,4.92-9,10.27-6.31,1.45.72,1.66,2,1.66,3.33,0,2.66-.09,5.33,0,8,.17,3.22-1.22,4.44-4.42,4.39C855.21,574.83,857.22,575.32,857,567.07Z"/><path class="cls-75" d="M835,509c.28-1.65-.71-3.55,1-4.92,0,2,0,4-.07,6Z"/><path class="cls-76" d="M824,527.24a6.68,6.68,0,0,1,0,1c-.3,2.08,1.11,5.08-.83,6.07-2.75,1.4-6.18.57-9.31.36-1.2-.08-1.47-1.23-1.48-2.26,0-3.49,0-7,0-10.49,0-1.91,1-2.66,2.83-2.62a14.92,14.92,0,0,0,3,0c4.91-.86,6.7,1.22,5.86,6A12.13,12.13,0,0,0,824,527.24Z"/><path class="cls-77" d="M783,566.91v1c0,6.6-3.33,8.92-9.82,6.83a3.11,3.11,0,0,1-1.26-.66c-.86-.88-1.05-13.57,0-14.16,3-1.74,6.46-.9,9.66-.62,2.39.21,1.2,2.65,1.41,4.13A25.24,25.24,0,0,1,783,566.91Z"/><path class="cls-77" d="M824,566.94v1c0,6.54-3.42,8.92-9.84,6.79-.57-.19-1.42-.65-1.48-1.08-.57-4.45-1.5-9.36.25-13.25,1.38-3.09,6-1,9.18-1.2,2.66-.14,1.72,2.28,1.86,3.75C824.13,564.27,824,565.61,824,566.94Z"/><path class="cls-78" d="M803.11,559.8a36.23,36.23,0,0,1,0,14.3c-2.69.18-6.15,1.76-7.67-1.16a13.18,13.18,0,0,1,0-12C797,558,800.42,559.62,803.11,559.8Z"/><path class="cls-79" d="M803.11,559.8c-2.27.66-5.94-1.31-6.68,1.49a23.07,23.07,0,0,0,0,11.32c.74,2.8,4.41.83,6.68,1.49a10.65,10.65,0,0,1-9,.56c-4.36-1.68-1.59-6.23-1.87-9.46-.17-2-2-5.55,1.8-6.05C796.93,558.76,800.19,558.05,803.11,559.8Z"/><path class="cls-80" d="M796.11,534.76c-2.85.68-4.5,0-4.12-3.37a34.85,34.85,0,0,0,0-4c0-9.36,1.18-10.17,11-7.55-1.21,2-4.07.56-5.21,2.6-1.13,7.29-1,7.68,4.31,10.39C801,536.17,797.9,533.44,796.11,534.76Z"/><path class="cls-81" d="M796.11,534.76c1.57-1.79,4.39.41,5.8-1.84a5.27,5.27,0,0,1-1.21-4.2c.48-3.85-1.09-6.33-4.65-7.67,2-2.15,4.68-.61,7-1.17,1.56,4.17,1.11,8.59.5,12.7C802.85,537.08,798.65,534.06,796.11,534.76Z"/><path class="cls-82" d="M731,158.14c1.69-.08,3.42,0,4.86-1.11q.66,10.86,1.3,21.72L736,179Q733.51,168.58,731,158.14Z"/><path class="cls-83" d="M705.78,162.15c.1-.72.19-1.44.29-2.16,1.29,3.92,1.22,8,1.72,12.08-.27-.19-.55-.36-.81-.56C703.38,168.8,701.33,165.89,705.78,162.15Z"/><path class="cls-84" d="M725.4,87c1.77.38,3.91.2,4.66,2.6-2.19.33-2.64,3.5-4.49,3.42s-5.49-1.75-5.41-2.37C720.46,88.19,722.89,87.37,725.4,87Z"/><path class="cls-85" d="M730,112.05c-1.45-1.44-3.89-2-4.15-5.42,4.75,3.35,9.53,4.6,15,1.83-.31,3.13-2.36,3.14-3.79,3.84C734.71,113.2,732.32,113.54,730,112.05Z"/><path class="cls-86" d="M716.39,88.81c3-6.19,10.21-7.37,15.55-2.5C726.26,84.36,721,84.86,716.39,88.81Z"/><path class="cls-87" d="M743,88c1.41-1.45,3.15-1.56,5-1.2,1.45.28,3,.52,3.56,2.15.07.21-.69,1-.73,1-2.55-1.54-2.55,6.54-5.94,1.59C745.18,89.86,742.39,89.86,743,88Z"/><path class="cls-88" d="M730,112.05l7.1.25C734.64,115,732.26,115.36,730,112.05Z"/><path class="cls-89" d="M743,88c.69,1.13,2.42,1.69,1.89,3.49-.33-.35-.6-.82-1-1-1-.51-1.84,2.13-2.73.44C740.41,89.52,741.79,88.65,743,88Z"/><path class="cls-2" d="M796.05,521.05c5.07-1.06,6.7,1.17,6,6a41,41,0,0,0-.11,5.87c-4.72,1.14-6.67-.63-6-5.49A54.26,54.26,0,0,0,796.05,521.05Z"/></g></g></svg>